<svg width="218" height="158" viewBox="0 0 218 158" fill="none" xmlns="http://www.w3.org/2000/svg">
<path d="M64.6998 13.586L93.7311 12.59L28.2243 120.997L0.749786 120.997L64.6998 13.586Z" fill="white"/>
<path d="M64.6998 13.586L93.7311 12.59L28.2243 120.997L0.749786 120.997L64.6998 13.586Z" fill="white"/>
<path d="M39.598 100H118L105.938 121H28.0001L39.598 100Z" fill="white"/>
<path d="M39.598 100H118L105.938 121H28.0001L39.598 100Z" fill="white"/>
<path d="M74.5 137H159L146 158H62L74.5 137Z" fill="white"/>
<path d="M74.5 137H159L146 158H62L74.5 137Z" fill="white"/>
<path d="M109.751 62H218L202.409 85H94L109.751 62Z" fill="white"/>
<path d="M109.751 62H218L202.409 85H94L109.751 62Z" fill="white"/>
<path d="M141.831 100H197.5L185.723 121H127L141.831 100Z" fill="white"/>
<path d="M141.831 100H197.5L185.723 121H127L141.831 100Z" fill="white"/>
<path d="M165.5 117H188L164.224 158H141.5L165.5 117Z" fill="white"/>
<path d="M165.5 117H188L164.224 158H141.5L165.5 117Z" fill="white"/>
<path d="M84.7235 117H108.23L84.7235 158H62L84.7235 117Z" fill="white"/>
<path d="M84.7235 117H108.23L84.7235 158H62L84.7235 117Z" fill="white"/>
</svg>
