<svg width="250" height="59" viewBox="0 0 250 59" fill="none" xmlns="http://www.w3.org/2000/svg">
<path d="M140.273 24.3906C140.024 23.5265 139.675 22.763 139.225 22.1001C138.775 21.4254 138.225 20.8572 137.574 20.3956C136.935 19.9221 136.201 19.5611 135.372 19.3125C134.555 19.0639 133.65 18.9396 132.656 18.9396C130.797 18.9396 129.164 19.4013 127.755 20.3246C126.358 21.2479 125.269 22.5914 124.488 24.3551C123.707 26.107 123.316 28.2495 123.316 30.7827C123.316 33.3158 123.701 35.4702 124.47 37.2457C125.24 39.0213 126.329 40.3767 127.737 41.3118C129.146 42.2351 130.809 42.6967 132.727 42.6967C134.467 42.6967 135.952 42.389 137.183 41.7734C138.426 41.1461 139.373 40.2642 140.024 39.1278C140.687 37.9915 141.018 36.648 141.018 35.0973L142.581 35.3281H133.206V29.5398H148.423V34.1207C148.423 37.3168 147.748 40.063 146.398 42.3594C145.049 44.6439 143.191 46.4077 140.823 47.6506C138.456 48.8816 135.745 49.4972 132.691 49.4972C129.282 49.4972 126.287 48.7455 123.707 47.2422C121.126 45.727 119.114 43.5786 117.67 40.7969C116.237 38.0033 115.521 34.6889 115.521 30.8537C115.521 27.9062 115.947 25.2784 116.8 22.9702C117.664 20.6501 118.871 18.6851 120.422 17.0753C121.973 15.4654 123.778 14.2403 125.837 13.3999C127.897 12.5594 130.128 12.1392 132.531 12.1392C134.591 12.1392 136.509 12.4411 138.284 13.0447C140.06 13.6366 141.634 14.477 143.007 15.5661C144.392 16.6551 145.522 17.9512 146.398 19.4545C147.274 20.946 147.837 22.5914 148.085 24.3906H140.273Z" fill="white"/>
<path d="M0 18.8944L8.73362 18.1086V52.9222L0 53.8622V18.8944Z" fill="white"/>
<path d="M8.73364 46.2009L25.7642 44.4329V50.9966L17.2489 51.8979L8.73364 52.8801V46.2009Z" fill="white"/>
<path d="M29.6943 15.7513L37.5546 14.9656V49.9488L29.6943 50.7191V15.7513Z" fill="white"/>
<path d="M42.0566 14.9202L50.8221 14.2299L62.0088 48.3615L61.5725 48.3627L58.7362 48.5651L54.9609 48.8333L42.0566 14.9202Z" fill="white"/>
<path d="M79.2578 12.608L70.2144 13.0657L57.6583 48.6289L62.0297 48.3021L65.8689 48.0429L79.2578 12.608Z" fill="white"/>
<rect x="59.3887" y="40.5037" width="2.18341" height="1.57159" fill="white"/>
<path d="M152.62 49.3618L161.167 49.6648L172.707 15.1799L172.675 15.277L165.411 14.9839L152.62 49.3618Z" fill="white"/>
<path d="M188.209 51.196L179.655 50.4953L166.723 15.2022L171.983 15.2573L174.394 15.3385L188.209 51.196Z" fill="white"/>
<rect width="1.31004" height="1.17869" transform="matrix(1 0 0 -1 168.996 23.6091)" fill="white"/>
<path d="M224.018 19.9124L250 21.4839V27.3774L224.018 26.0023V19.9124Z" fill="white"/>
<path d="M224.018 50.7546L249.345 53.5049V59.0055L224.018 56.2552V50.7546Z" fill="white"/>
<path d="M225.045 35.8716L248.578 37.5927L248.578 43.2897L224.816 41.7614L225.045 35.8716Z" fill="white"/>
<path d="M224.018 26.0022H231.878V52.3263L224.018 51.0101V26.0022Z" fill="white"/>
<path d="M82.9695 12.8047L108.734 12.2153V17.5194L82.9695 18.1088V12.8047Z" fill="white"/>
<path d="M82.9695 41.6824L108.734 41.2896V47.183L82.9695 47.7247V41.6824Z" fill="white"/>
<rect x="82.9695" y="26.7524" width="24.4541" height="5.89345" fill="white"/>
<rect x="82.9695" y="17.323" width="7.86026" height="24.3596" fill="white"/>
<rect x="162.882" y="37.7175" width="15.7205" height="5.50055" fill="white"/>
<path d="M188.209 17.3584L219.651 18.7335V24.627L188.209 23.4483V17.3584Z" fill="white"/>
<path d="M200 23.252H207.86V53.8979L200 53.2216V23.252Z" fill="white"/>
</svg>
