<svg width="250" height="58" viewBox="0 0 250 58" fill="none" xmlns="http://www.w3.org/2000/svg">
<path d="M140.273 24.3906C140.024 23.5265 139.675 22.763 139.225 22.1001C138.775 21.4254 138.225 20.8572 137.574 20.3956C136.935 19.9221 136.201 19.5611 135.372 19.3125C134.555 19.0639 133.65 18.9396 132.656 18.9396C130.797 18.9396 129.164 19.4013 127.755 20.3246C126.358 21.2479 125.269 22.5914 124.488 24.3551C123.707 26.107 123.316 28.2495 123.316 30.7827C123.316 33.3158 123.701 35.4702 124.47 37.2457C125.24 39.0213 126.329 40.3767 127.737 41.3118C129.146 42.2351 130.809 42.6967 132.727 42.6967C134.467 42.6967 135.952 42.389 137.183 41.7734C138.426 41.1461 139.373 40.2642 140.024 39.1278C140.687 37.9915 141.018 36.648 141.018 35.0973L142.581 35.3281H133.206V29.5398H148.423V34.1207C148.423 37.3168 147.748 40.063 146.398 42.3594C145.049 44.6439 143.191 46.4077 140.823 47.6506C138.456 48.8816 135.745 49.4972 132.691 49.4972C129.282 49.4972 126.287 48.7455 123.707 47.2422C121.126 45.727 119.114 43.5786 117.67 40.7969C116.237 38.0033 115.521 34.6889 115.521 30.8537C115.521 27.9062 115.947 25.2784 116.8 22.9702C117.664 20.6501 118.871 18.6851 120.422 17.0753C121.973 15.4654 123.778 14.2403 125.837 13.3999C127.897 12.5594 130.128 12.1392 132.531 12.1392C134.591 12.1392 136.509 12.4411 138.284 13.0447C140.06 13.6366 141.634 14.477 143.007 15.5661C144.392 16.6551 145.522 17.9512 146.398 19.4545C147.274 20.946 147.837 22.5914 148.085 24.3906H140.273Z" fill="black"/>
<path d="M0 19.8944L8.73362 19.1086V53.9222L0 54.8622V19.8944Z" fill="black"/>
<path d="M8.73364 47.2009L25.7642 45.4329V51.9966L17.2489 52.8979L8.73364 53.8801V47.2009Z" fill="black"/>
<path d="M29.6943 16.7513L37.5546 15.9656V50.9488L29.6943 51.7191V16.7513Z" fill="black"/>
<path d="M42.0566 15.9202L50.8221 15.2299L62.0088 49.3615L61.5725 49.3627L58.7362 49.5651L54.9609 49.8333L42.0566 15.9202Z" fill="black"/>
<path d="M79.2577 13.608L70.2143 14.0657L57.6582 49.6289L62.0296 49.3021L65.8687 49.0429L79.2577 13.608Z" fill="black"/>
<rect x="59.3887" y="41.5037" width="2.18341" height="1.57159" fill="black"/>
<path d="M152.62 49.3618L161.167 49.6648L172.707 15.1799L172.675 15.277L165.411 14.9839L152.62 49.3618Z" fill="black"/>
<path d="M188.21 51.196L179.655 50.4953L166.723 15.2022L171.983 15.2573L174.394 15.3385L188.21 51.196Z" fill="black"/>
<rect width="1.31004" height="1.17869" transform="matrix(1 0 0 -1 168.996 24.6091)" fill="black"/>
<path d="M224.017 18.9124L250 20.4839V26.3774L224.017 25.0023V18.9124Z" fill="black"/>
<path d="M224.017 49.7546L249.345 52.5049V58.0055L224.017 55.2552V49.7546Z" fill="black"/>
<path d="M225.045 34.8716L248.578 36.5927L248.578 42.2897L224.816 40.7614L225.045 34.8716Z" fill="black"/>
<path d="M224.017 25.0022H231.878V51.3263L224.017 50.0101V25.0022Z" fill="black"/>
<path d="M82.9695 13.8047L108.734 13.2153V18.5194L82.9695 19.1088V13.8047Z" fill="black"/>
<path d="M82.9695 42.6824L108.734 42.2896V48.183L82.9695 48.7247V42.6824Z" fill="black"/>
<rect x="82.9695" y="27.7524" width="24.4541" height="5.89345" fill="black"/>
<rect x="82.9695" y="18.323" width="7.86026" height="24.3596" fill="black"/>
<rect x="162.882" y="37.7175" width="15.7205" height="5.50055" fill="black"/>
<path d="M188.21 16.3584L219.651 17.7335V23.627L188.21 22.4483V16.3584Z" fill="black"/>
<path d="M200 22.252H207.86V52.8979L200 52.2216V22.252Z" fill="black"/>
</svg>
