<svg width="544" height="250" viewBox="0 0 544 250" fill="none" xmlns="http://www.w3.org/2000/svg">
<path fill-rule="evenodd" clip-rule="evenodd" d="M390.005 161.983H391.611V154.209L394.422 161.983H395.894L398.704 154.209V161.983H400.31V151.931H397.901L395.225 159.839L392.414 151.931H390.005V161.983ZM380.637 153.405H383.849V161.983H385.589V153.405H388.801V151.931H380.637V153.405ZM341.387 161.988L441.252 62H392.94L293.075 161.988H341.387ZM349.446 96.9836H252.286C222.71 96.9836 217.49 98.5921 204.777 111.326C192.866 123.255 154.086 161.935 154.086 161.935H196.242L225.788 132.369C232.345 125.802 235.825 125.131 249.609 125.131H321.475L349.446 96.9836ZM203.438 105.562C194.74 113.872 156.997 151.947 146.692 162H103C103 162 156.331 106.232 176.539 86.2607C197.282 66.5573 207.587 62 245.728 62H384.375L354.397 92.0243H248.539C221.773 92.0243 215.751 93.9008 203.438 105.562Z" fill="#E10600"/>
</svg>
