<svg width="402" height="250" viewBox="0 0 402 250" fill="none" xmlns="http://www.w3.org/2000/svg">
<g clip-path="url(#clip0_397_184)">
<path d="M305.196 56.9996H96.8438C91.3204 56.9823 86.0127 59.1616 82.0704 63.0654C80.122 65.0346 78.5818 67.3758 77.5398 69.9522C76.4977 72.5286 75.9747 75.2887 76.0012 78.0713V171.889C75.9712 174.661 76.491 177.412 77.53 179.979C78.569 182.546 80.1062 184.877 82.0512 186.836C83.9935 188.795 86.3001 190.348 88.8387 191.406C91.3772 192.464 94.0978 193.005 96.8442 193H305.196C310.726 192.974 316.02 190.737 319.92 186.781C323.819 182.824 326.005 177.469 326 171.889V78.0511C326.021 75.2857 325.497 72.5437 324.46 69.984C323.422 67.4244 321.891 65.098 319.956 63.1398C318.021 61.1816 315.72 59.6306 313.186 58.5766C310.652 57.5227 307.936 56.9868 305.196 57L305.196 56.9996Z" fill="white"/>
<path d="M318.681 78.0521C318.701 76.2565 318.367 74.4747 317.698 72.811C317.028 71.1472 316.036 69.6348 314.781 68.3623C313.525 67.0898 312.031 66.0826 310.385 65.3997C308.739 64.7168 306.975 64.3719 305.195 64.3851H246.96L280.371 120.727L283.454 121.121L285.406 123.7V126.103L287.514 126.536L289.465 129.214V131.538L291.651 131.932L293.856 134.355V139.711C296.482 142.103 299.441 144.093 302.638 145.619C305.586 146.761 305.917 151.527 307.693 154.067C309.918 157.769 312.962 159.246 312.318 161.314C310.835 166.848 305.215 176.182 299.984 176.615H279.298V185.556H305.215C306.998 185.548 308.763 185.185 310.407 184.488C312.051 183.79 313.542 182.771 314.795 181.491C316.048 180.21 317.038 178.692 317.709 177.024C318.379 175.356 318.716 173.571 318.7 171.771V78.0517" fill="#BF0D3E"/>
<path d="M176.215 176.753H166.203C166.203 151.507 174.654 137.545 184.783 134.768C186.168 134.512 185.505 127.62 183.748 125.512H177.894C176.957 125.512 177.504 123.74 177.504 123.74L182.246 113.519L181.602 110.723H164.076L178.479 100.561C179.143 73.7592 206.387 71.6715 222.8 82.8375C232.558 89.3557 233.299 102.275 232.558 111.196C232.441 111.767 230.021 111.393 230.021 111.393C230.021 111.393 228.362 121.239 232.695 121.239H251.839C259.646 120.924 267.179 126.26 267.179 126.26L269.013 119.506L227.074 64.3855H96.844C93.2415 64.3642 89.7765 65.7798 87.2033 68.324C85.9487 69.6053 84.9578 71.1245 84.2879 72.7941C83.6179 74.4637 83.2821 76.2506 83.2999 78.0517V171.89C83.2775 173.686 83.6113 175.468 84.2816 177.132C84.952 178.796 85.9454 180.308 87.2033 181.579C89.7607 184.159 93.2276 185.61 96.844 185.615H181.387C179.318 182.032 176.957 177.955 176.234 176.754" fill="#041E42"/>
<path d="M102.074 156.844C102.074 148.507 112.078 144.354 117.894 150.272C123.71 156.19 119.508 166.249 111.249 166.178C110.037 166.18 108.837 165.94 107.717 165.471C106.598 165.002 105.583 164.313 104.729 163.445C103.876 162.577 103.202 161.546 102.747 160.413C102.291 159.28 102.063 158.066 102.076 156.844" fill="white"/>
</g>
<defs>
<clipPath id="clip0_397_184">
<rect width="250" height="136" fill="white" transform="translate(76 57)"/>
</clipPath>
</defs>
</svg>
