<svg width="250" height="250" viewBox="0 0 250 250" fill="none" xmlns="http://www.w3.org/2000/svg">
<path d="M97.2815 7H152.718C166.172 7 177.004 17.8317 177.004 31.2864V218.714C177.004 232.168 166.172 243 152.718 243H97.2815C83.8268 243 72.9951 232.168 72.9951 218.714V31.2864C72.9951 17.8317 83.8268 7 97.2815 7Z" fill="white"/>
<path d="M138.948 50.2591L139.025 51.0573C140.698 52.0457 141.572 52.844 143.282 53.9464C147.768 56.7974 153.281 61.8532 152.596 79.2253C153.888 83.0266 154.459 90.4393 155.599 92.7961C157.919 97.4717 159.515 100.513 160.199 104.884C160.199 104.884 160.884 111.727 161.757 112.221C166.394 113.285 165.065 113.741 165.711 114.578C166.433 115.49 169.131 115.452 169.131 117.961C170.082 119.215 170.805 120.47 171.298 121.838V31.4804C171.298 21.1408 162.935 12.7778 152.633 12.7778H134.804C137.655 13.8042 139.29 15.0206 140.241 16.9213C142.52 17.1114 145.221 22.2432 141 29.8839C142.863 31.1763 141.418 33.077 140.088 35.2438C139.669 35.928 139.251 37.1824 137.997 37.1064C136.324 40.5656 134.385 43.8348 132.904 44.0249C132.486 44.5571 132.181 46.0396 132.827 46.7238C134.995 47.7122 137.617 49.0046 138.948 50.2591V50.2591Z" fill="#C80F2E"/>
<path d="M155.599 236.981L155.409 237.019C163.581 232.039 158.526 222.612 156.968 217.062L157.271 216.111C157.689 215.35 156.816 213.564 156.816 213.564C155.79 212.728 155.561 208.091 155.028 205.962C154.155 202.503 156.587 196.459 156.587 194.406C156.587 192.352 155.028 189.54 152.216 185.967C151.531 185.169 149.478 167.645 147.654 163.197C145.107 157.076 144.346 158.064 141.306 150.729C138.987 145.596 140.811 138.032 135.566 120.47L136.744 119.368C136.744 119.368 132.562 104.086 131.193 99.9047C129.862 95.7232 127.393 95.4571 127.393 95.4571L127.544 93.2904C127.735 92.6441 132.638 79.9096 133.056 79.4915C133.094 79.2254 140.127 74.3977 140.24 75.1199C140.81 78.237 143.547 94.0886 144.725 96.5975C145.904 99.1444 149.972 106.899 151.834 111.727C144.574 113.514 139.137 120.09 139.137 127.883C139.137 137.082 146.588 144.57 155.788 144.57C162.819 144.57 168.902 140.199 171.335 134.041L171.297 218.546C171.298 227.896 164.57 235.612 155.599 236.981V236.981Z" fill="#C80F2E"/>
<path d="M128.951 12.7778C122.868 15.1347 122.032 17.7576 121.805 26.1966C120.778 26.3106 118.649 25.3223 119.372 30.4541C119.372 30.4541 119.752 33.8753 121.12 33.3051C120.056 40.7557 120.902 42.6205 115.951 43.1506C114.887 43.2646 113.594 43.3406 111.998 43.4166L111.503 44.1009C104.737 44.7471 101.386 44.3147 97.0198 50.069C95.3472 52.2738 93.5606 55.3909 91.3558 59.8384C91.3558 59.8384 89.3411 64.8182 88.7324 66.8709C86.7937 70.9384 82.042 79.9475 80.6355 85.7256C80.1799 87.7023 79.305 88.3105 80.5595 91.1615C82.4221 95.267 79.343 96.3313 89.9108 96.0272V98.4601C89.9108 98.4601 87.0978 100.893 86.4896 102.337C85.9194 103.82 84.2848 111.081 84.3613 114.54C84.5509 123.549 91.888 131.075 94.0542 140.047L98.958 140.732C101.619 146.852 113.251 163.348 115.95 166.01C115.989 166.048 116.027 166.086 116.065 166.125C116.672 167.683 119.676 169.622 121.424 171.56C122.489 172.587 127.393 177.909 133.931 182.965C136.331 184.821 138.912 186.652 141.61 188.211C141.534 188.172 143.206 191.518 144.042 194.254C140.697 196.953 147.198 201.896 149.174 210.069C149.288 211.17 147.273 212.273 150.277 214.972C150.087 227.325 146.324 233.789 152.633 237.209H97.0198C86.9088 236.981 78.7354 228.695 78.7354 218.544V31.4804C78.7354 21.2548 86.9082 13.0059 97.0198 12.7778H128.951Z" fill="#1D4289"/>
</svg>
