<svg width="250" height="250" viewBox="0 0 250 250" fill="none" xmlns="http://www.w3.org/2000/svg">
<path fill-rule="evenodd" clip-rule="evenodd" d="M229.538 188.692C229.538 184.504 232.695 181.343 236.746 181.343C240.743 181.343 243.902 184.505 243.902 188.692C243.902 192.953 240.743 196.089 236.746 196.089C232.694 196.089 229.538 192.953 229.538 188.692ZM236.744 197.566C241.563 197.566 245.679 193.819 245.679 188.692C245.679 183.616 241.563 179.869 236.744 179.869C231.876 179.869 227.759 183.616 227.759 188.692C227.759 193.819 231.876 197.566 236.744 197.566ZM234.87 189.396H236.648L239.336 193.819H241.069L238.169 189.322C239.665 189.137 240.813 188.345 240.813 186.516C240.813 184.504 239.622 183.616 237.211 183.616H233.327V193.819H234.869V184.923H236.974C238.051 184.923 239.196 185.159 239.196 186.422C239.196 187.99 238.028 188.086 236.719 188.086H234.869V189.396H234.87V189.396ZM154.309 158.157L165.809 140.688L166.422 158.157H154.309ZM200.351 157.923L211.836 140.515L212.416 157.923H200.351Z" fill="#1879BF"/>
<path fill-rule="evenodd" clip-rule="evenodd" d="M213.396 178.943L212.55 171.138H190.906L186.128 178.856H167.367L166.939 171.138H145.778L140.625 178.943L110.629 178.94C101.362 178.94 92.8743 173.248 91.4178 164.517C90.7405 160.471 90.7435 156.341 91.4269 152.296L83.8629 178.935L67.3356 178.943L56.5253 152.796L49.3387 178.943H34.4896L45.999 136.988H40.9045L44.3921 124.62H62.9674L75.9358 155.164L81.1004 136.961L75.9695 136.984L79.4688 124.554L99.2879 124.622L93.5124 144.688C97.0532 134.449 108.258 124.474 122.121 124.474L144.41 124.555L139.211 143.455H124.744C124.744 143.455 125.903 139.288 126.458 137.281L123.161 137.205C115.289 137.205 107.547 149.019 107.547 157.161C107.547 165.3 114.107 166.876 115.813 166.876L132.061 166.939L151.792 136.984L147.184 136.929L150.616 124.554H180.831L182.894 160.319L197.596 136.984H192.978L196.494 124.554H226.279L229.607 172.991C236.23 158.471 239.927 142.334 239.927 125.332C239.927 61.8751 188.519 10.4292 125.103 10.4292C61.6885 10.4292 10.2803 61.8751 10.2803 125.332C10.2803 188.788 61.6898 240.231 125.103 240.231C169.165 240.231 207.423 215.389 226.678 178.944H213.396V178.943V178.943Z" fill="#1879BF"/>
</svg>
