<svg width="250" height="250" viewBox="0 0 250 250" fill="none" xmlns="http://www.w3.org/2000/svg">
<g clip-path="url(#clip0_397_67)">
<path fill-rule="evenodd" clip-rule="evenodd" d="M209.741 28.8123C202.155 34.5017 186.982 42.0875 168.018 37.3463C134.512 29.1281 125.03 0.364746 125.03 0.364746C125.03 0.364746 115.484 29.0963 82.0435 37.3463C62.7942 42.0875 47.9066 34.4389 40.0041 28.8442H33.999V183.725C33.999 187.833 34.9472 195.42 41.3 203.322C49.1706 212.804 62.4457 218.905 80.8105 221.559C95.6663 223.677 106.413 228.291 113.999 235.657C119.688 241.062 125.062 250.418 125.062 250.418C125.062 250.418 130.594 240.872 135.998 235.657C143.647 228.292 154.49 223.708 169.187 221.559C187.583 218.901 200.795 212.709 208.698 203.194C215.051 195.482 216 187.738 216 183.85V28.9698H209.963" fill="white"/>
<path fill-rule="evenodd" clip-rule="evenodd" d="M210.373 34.8172C210.373 34.8172 192.135 49.0087 166.438 42.5923C136.504 35.1011 124.715 12.6914 124.715 12.6914C124.715 12.6914 113.083 35.133 82.9922 42.5923C57.706 48.9141 39.373 34.6898 39.373 34.6898V183.565C39.3758 188.622 41.4906 210.116 81.7282 215.806C97.5641 218.097 109.386 223.17 117.762 231.357C120.821 234.29 123.135 237.267 124.905 240.017C126.685 237.277 129.014 234.296 132.049 231.357C140.551 223.17 152.373 218.082 168.082 215.806C208.224 210.022 210.12 188.528 210.437 183.565V34.6898" fill="#013369"/>
<path fill-rule="evenodd" clip-rule="evenodd" d="M125.031 225.195C125.031 225.195 136.663 210.845 166.754 206.198C201.523 200.857 200.259 184.609 200.259 183.788V105.715H49.4866V183.788C49.4866 184.609 48.4629 200.857 82.992 206.198C113.21 210.876 124.715 225.195 124.715 225.195" fill="white"/>
<path fill-rule="evenodd" clip-rule="evenodd" d="M89.6295 162.831L89.6241 125.85L84.9776 123.242V113.633H106.187V123.242L101.762 125.85V201.394L90.4458 198.012L74.073 149.651L74.0703 181.576L79.2855 185.559V195.389L56.5591 189.604V181.229L61.7743 179.193V125.775L56.4326 123.136V113.527H73.6271L89.6841 162.836L89.6295 162.831ZM128.824 196.652L133.376 202.089V211.698L110.839 203.29V195.135L115.801 193.099V125.773L110.871 123.273V113.537H150.065V133.103H141.467L138.862 125.075H128.906V147.707H136.365L139.305 143.408H145.311V163.543H139.305L136.476 159.465H128.89V196.763L128.824 196.652ZM153.795 200.129V190.52L159.389 185.936V125.881L154.616 123.38V113.645H177.154V123.38L172.728 125.881V182.459L182.432 179.839L184.291 165.046H193.552V189.764L153.726 200.384" fill="#D50A0A"/>
<path fill-rule="evenodd" clip-rule="evenodd" d="M53.4371 89.8164L46.6094 84.6958H54.9541L57.7068 76.7934L60.4596 84.6958H68.8043L61.9766 89.8483L64.4864 97.8763L57.6905 93.1034L50.8946 97.8763L53.4044 89.8483L53.4371 89.8164ZM82.9913 89.8164L76.1635 84.6958H84.5083L87.261 76.7934L90.0138 84.6958H98.3585L91.5307 89.8483L94.0405 97.8763L87.2446 93.1034L80.4487 97.8763L82.9585 89.8483L82.9913 89.8164ZM53.4371 63.2653L46.6094 58.1447H54.9541L57.7068 50.2422L60.4596 58.1447H68.8043L61.9766 63.2971L64.4864 71.3252L57.6905 66.5522L50.8946 71.3252L53.4044 63.2971L53.4371 63.2653ZM82.9913 63.2653L76.1635 58.1447H84.5083L87.261 50.2422L90.0138 58.1447H98.3585L91.5307 63.2971L94.0405 71.3252L87.2446 66.5522L80.4487 71.3252L82.9585 63.2971L82.9913 63.2653ZM198.994 97.718L192.198 92.945L185.402 97.718L187.912 89.6899L181.084 84.5375H189.429L192.182 76.635L194.934 84.5375H203.279L196.451 89.6899L198.964 97.718H198.994ZM169.282 97.718L162.486 92.945L155.69 97.718L158.2 89.6899L151.372 84.5375H159.717L162.471 76.635L165.227 84.5375H173.572L166.744 89.6899L169.257 97.718H169.282ZM198.994 71.1678L192.198 66.3948L185.402 71.1678L187.912 63.1397L181.084 57.9873H189.429L192.182 50.0848L194.934 57.9873H203.279L196.451 63.1397L198.964 71.1678H198.994ZM169.282 71.1678L162.486 66.3948L155.69 71.1678L158.2 63.1397L151.372 57.9873H159.717L162.471 50.0848L165.227 57.9873H173.572L166.744 63.1397L169.257 71.1678H169.282ZM131.352 57.2593C128.315 54.7559 124.904 53.1506 121.301 52.3598C122.177 51.5317 123.074 50.8201 123.861 50.1631C128.381 51.2505 131.416 53.2762 133.502 54.9988C132.762 55.7569 132.045 56.4967 131.365 57.252L131.352 57.2584V57.2593ZM126.959 62.5382C124.063 60.1076 120.543 58.303 116.559 57.4813C117.169 56.6942 117.883 55.8561 118.57 55.0789C121.617 55.6194 125.524 57.2247 128.937 60.0411C128.242 60.8756 127.59 61.7228 126.978 62.5282L126.959 62.5373V62.5382ZM123.008 68.0701C119.885 65.4684 116.244 63.8659 112.672 63.2025C112.672 63.2025 113.768 61.4134 114.391 60.4871C118.753 61.3534 122.293 63.3945 124.79 65.4811C124.153 66.3911 123.548 67.2638 123.008 68.0665V68.0692V68.0701ZM143.648 41.6454C143.648 41.6454 140.108 43.4882 135.176 48.3467C136.289 48.9755 137.54 49.8546 138.258 50.4515C137.511 51.1122 136.75 51.8266 136.042 52.4963C132.818 49.8509 129.499 48.5132 126.907 47.8817C127.767 47.2656 128.68 46.6587 129.582 46.0708C130.972 46.4248 132.319 46.9717 132.319 46.9717C137.882 42.7356 142.718 40.9029 142.718 40.9029C142.718 40.9029 142.159 40.629 140.67 40.649C118.765 40.932 98.6306 57.2747 102.423 85.2164C102.831 88.1839 103.985 93.592 105.452 95.9635C105.939 91.317 107.69 81.0122 112.879 69.9502C111.075 69.3022 109.592 69.0365 109.592 69.0365C110.123 67.9236 110.86 66.5049 110.86 66.5049C114.717 67.2293 118.098 68.8372 121.038 71.1832C120.333 72.3244 119.855 73.0669 119.517 73.6548C118.487 72.8422 117.444 72.1442 116.293 71.5054C110.445 81.7147 107.759 91.3552 106.652 96.3812C106.713 96.6924 107.347 96.8517 107.86 96.7852C131.85 93.6785 142.945 81.4235 146.422 68.1802C148.67 59.4879 147.934 50.3842 144.924 42.9568C144.713 42.4353 144.302 41.569 143.603 41.6327" fill="white"/>
</g>
<defs>
<clipPath id="clip0_397_67">
<rect width="250" height="250" fill="white"/>
</clipPath>
</defs>
</svg>
