<svg width="250" height="250" viewBox="0 0 250 250" fill="none" xmlns="http://www.w3.org/2000/svg">
<g clip-path="url(#clip0_397_106)">
<path fill-rule="evenodd" clip-rule="evenodd" d="M125.326 234.974C120.534 224.957 98.2649 223.154 88.976 222.984L88.251 222.924C88.251 222.924 80.5988 221.662 80.5508 221.439C20.2337 200.854 21.0949 153.249 34.9556 120.725C48.3767 89.2307 24.0234 54.5807 24.0234 54.5807C66.1868 55.6468 59.0055 17.9541 59.0055 17.9541C95.6282 55.1254 125.328 19.0462 125.328 19.0462C125.328 19.0462 155.024 55.1254 191.646 17.9541C191.646 17.9541 184.467 55.6468 226.627 54.5807C226.627 54.5807 202.273 89.2294 215.696 120.725C229.558 153.249 230.831 199.992 170.512 220.578C170.464 220.802 162.4 222.924 162.4 222.924L161.675 222.984C152.386 223.154 130.117 224.957 125.326 234.974V234.974Z" fill="black"/>
<path fill-rule="evenodd" clip-rule="evenodd" d="M125.327 221.307C115.123 214.749 99.4546 213.657 99.4546 213.657C34.3204 206.246 30.0624 159.596 43.7028 128.744C59.0058 94.1212 38.5991 63.5088 38.5991 63.5088C60.4636 55.1265 66.658 36.904 66.658 36.904C101.274 60.2288 125.327 33.9897 125.327 33.9897C125.327 33.9897 149.377 60.2288 183.993 36.904C183.993 36.904 190.189 55.1265 212.05 63.5088C212.05 63.5088 191.646 94.1212 206.951 128.744C220.592 159.596 216.33 206.246 151.196 213.657C151.196 213.655 135.529 214.749 125.327 221.307V221.307Z" fill="#E7A95A"/>
<path fill-rule="evenodd" clip-rule="evenodd" d="M46.6176 138.582C37.8709 154.983 45.523 201.996 94.7158 206.002C94.7158 206.002 119.86 208.554 125.327 215.114C130.791 208.552 155.935 206.002 155.935 206.002C164.485 205.307 171.78 203.307 177.954 200.399L54.7484 118.368C53.0649 124.638 50.4515 131.39 46.6176 138.582V138.582ZM204.035 138.582C180.248 93.9814 203.488 66.243 203.488 66.243C187.82 61.1394 181.442 44.922 181.442 44.922C152.291 66.4233 125.327 40.9131 125.327 40.9131C125.327 40.9131 98.3603 66.4233 69.207 44.922C69.207 44.922 68.9126 45.6704 68.2965 46.8934L205.115 140.989C204.806 140.164 204.446 139.36 204.035 138.582V138.582ZM65.2447 52.0308C61.7831 57.0578 55.9286 63.3884 47.1637 66.243C47.1637 66.243 61.4109 83.2489 56.1763 112.043L183.652 197.269C202.501 185.291 208.446 163.917 206.936 149.124L65.2447 52.0308ZM95.0815 127.285L85.9729 121.453L72.1252 86.8338L70.6674 110.885L65.2019 107.606L66.0891 64.1134L73.7412 69.9433L87.7926 103.962L88.5215 79.9079L95.4434 84.6458L95.0815 127.285V127.285ZM139.175 156.438L132.249 152.065V133.845L112.571 120.725V139.674L106.377 135.302L106.264 91.8206L112.823 95.8296L112.936 112.708L132.249 124.371L132.079 109.212L139.175 114.531V156.438V156.438ZM178.164 182.679L151.196 165.187L151.561 122.183L157.392 126.192V161.178L178.893 175.392L178.164 182.679V182.679Z" fill="black"/>
<path fill-rule="evenodd" clip-rule="evenodd" d="M205.117 140.989L68.2976 46.8936C67.3973 48.6731 66.3773 50.3895 65.2445 52.0309L206.937 149.123C206.629 146.088 206.009 143.334 205.117 140.989ZM54.748 118.369L177.954 200.4C179.917 199.477 181.82 198.431 183.652 197.269L56.1747 112.043C55.7867 114.171 55.3107 116.281 54.748 118.369ZM87.7924 103.962L73.741 69.9434L66.0888 64.1135L65.2017 107.606L70.6671 110.885L72.1249 86.8339L85.9728 121.453L95.0814 127.285L95.4446 84.6459L88.5226 79.9081L87.7924 103.962V103.962ZM132.249 124.371L112.936 112.709L112.823 95.8298L106.265 91.8208L106.378 135.302L112.571 139.674V120.725L132.249 133.845V152.065L139.175 156.439V114.53L132.079 109.211L132.249 124.371ZM157.393 126.191L151.561 122.182L151.196 165.186L178.164 182.679L178.895 175.39L157.393 161.177V126.191V126.191Z" fill="#E7A95A"/>
<path fill-rule="evenodd" clip-rule="evenodd" d="M181.771 223.292H182.805C183.413 223.292 183.857 223.382 184.132 223.567C184.403 223.751 184.541 224.045 184.541 224.445C184.541 224.818 184.409 225.089 184.148 225.256C183.888 225.426 183.449 225.509 182.836 225.509H181.77V223.292H181.771V223.292ZM185.433 225.5C185.704 225.181 185.84 224.783 185.84 224.308C185.84 223.699 185.604 223.242 185.135 222.934C184.665 222.627 183.966 222.474 183.03 222.474H180.508V229.159H181.772V226.308H183.016L184.374 229.159H185.807L184.295 226.107C184.781 226.026 185.161 225.821 185.433 225.5V225.5ZM187.618 227.919C187.367 228.528 186.996 229.081 186.528 229.544C186.032 230.032 185.465 230.403 184.831 230.661C184.195 230.92 183.531 231.049 182.837 231.049C182.186 231.049 181.548 230.915 180.921 230.649C180.298 230.383 179.733 230 179.255 229.52C178.784 229.047 178.411 228.488 178.155 227.873C177.898 227.258 177.766 226.598 177.767 225.932C177.767 225.25 177.899 224.589 178.17 223.954C178.434 223.32 178.819 222.743 179.305 222.258C179.764 221.79 180.314 221.422 180.921 221.175C181.538 220.927 182.191 220.799 182.883 220.799C184.246 220.796 185.556 221.331 186.527 222.289C187.006 222.781 187.373 223.341 187.624 223.966C187.875 224.594 187.999 225.266 187.999 225.98C188.003 226.646 187.874 227.305 187.618 227.919V227.919ZM180.3 220.608C179.5 220.997 178.801 221.568 178.259 222.273C177.849 222.801 177.529 223.391 177.309 224.022C176.948 225.059 176.888 226.177 177.135 227.246C177.382 228.316 177.928 229.294 178.707 230.067C179.273 230.636 179.916 231.075 180.643 231.382C181.352 231.683 182.115 231.838 182.885 231.839C183.65 231.839 184.392 231.69 185.112 231.385C185.841 231.08 186.505 230.638 187.068 230.084C187.628 229.544 188.056 228.919 188.347 228.206C188.641 227.494 188.788 226.736 188.788 225.936C188.788 225.011 188.591 224.142 188.19 223.324C187.854 222.628 187.382 222.006 186.802 221.494C186.223 220.983 185.547 220.593 184.814 220.346C184.193 220.137 183.542 220.032 182.886 220.034C181.992 220.024 181.107 220.221 180.3 220.608V220.608Z" fill="black"/>
</g>
<defs>
<clipPath id="clip0_397_106">
<rect width="250" height="250" fill="white"/>
</clipPath>
</defs>
</svg>
