<svg width="22" height="22" viewBox="0 0 22 22" fill="none" xmlns="http://www.w3.org/2000/svg">
<path d="M11.5919 1.82895L11.5869 1.32898L10.587 1.33892L10.5919 1.83889L11.5919 1.82895ZM1.839 10.5918L1.33902 10.5869L1.32908 11.5868L1.82906 11.5918L1.839 10.5918ZM20.1612 11.4084L20.6612 11.4133L20.6711 10.4134L20.1711 10.4084L20.1612 11.4084ZM10.4083 20.1712L10.4133 20.6712L11.4132 20.6613L11.4082 20.1613L10.4083 20.1712ZM12.974 12.2669C12.7788 12.0716 12.4622 12.0716 12.2669 12.2669C12.0717 12.4621 12.0717 12.7787 12.2669 12.974L12.974 12.2669ZM14.2115 14.9185C14.4067 15.1138 14.7233 15.1138 14.9186 14.9185C15.1138 14.7233 15.1138 14.4067 14.9186 14.2114L14.2115 14.9185ZM7.78856 7.08143C7.59329 6.88617 7.27671 6.88617 7.08145 7.08143C6.88619 7.27669 6.88619 7.59328 7.08145 7.78854L7.78856 7.08143ZM9.02599 9.73308C9.22125 9.92834 9.53784 9.92834 9.7331 9.73308C9.92836 9.53782 9.92836 9.22124 9.7331 9.02597L9.02599 9.73308ZM16.9948 9.90653C16.9278 9.63864 16.6563 9.47576 16.3884 9.54273C16.1205 9.6097 15.9577 9.88117 16.0246 10.1491L16.9948 9.90653ZM16.6728 12.7418C16.7398 13.0097 17.0113 13.1726 17.2792 13.1056C17.5471 13.0386 17.7099 12.7672 17.643 12.4993L16.6728 12.7418ZM11.8509 5.97553C12.1188 6.0425 12.3903 5.87962 12.4572 5.61172C12.5242 5.34383 12.3613 5.07236 12.0934 5.00539L11.8509 5.97553ZM9.5007 4.3572C9.2328 4.29023 8.96133 4.45311 8.89436 4.72101C8.82738 4.9889 8.99027 5.26037 9.25816 5.32735L9.5007 4.3572ZM10.1492 16.0245C9.88129 15.9575 9.60982 16.1204 9.54285 16.3883C9.47588 16.6562 9.63876 16.9276 9.90665 16.9946L10.1492 16.0245ZM12.4994 17.6428C12.7673 17.7098 13.0387 17.5469 13.1057 17.279C13.1727 17.0111 13.0098 16.7396 12.7419 16.6726L12.4994 17.6428ZM5.0053 12.0935C5.07227 12.3613 5.34374 12.5242 5.61163 12.4573C5.87953 12.3903 6.04241 12.1188 5.97544 11.8509L5.0053 12.0935ZM5.32726 9.25819C5.26028 8.99029 4.98882 8.82741 4.72092 8.89439C4.45302 8.96136 4.29014 9.23283 4.35711 9.50073L5.32726 9.25819ZM17.1284 17.1284C13.7438 20.5129 8.25639 20.5129 4.87184 17.1284L4.16474 17.8355C7.9398 21.6105 14.0604 21.6105 17.8355 17.8355L17.1284 17.1284ZM4.87184 17.1284C1.4873 13.7438 1.4873 8.25639 4.87184 4.87184L4.16474 4.16474C0.389668 7.9398 0.389668 14.0604 4.16474 17.8355L4.87184 17.1284ZM4.87184 4.87184C8.25639 1.4873 13.7438 1.4873 17.1284 4.87184L17.8355 4.16474C14.0604 0.389668 7.9398 0.389668 4.16474 4.16474L4.87184 4.87184ZM17.1284 4.87184C20.5129 8.25639 20.5129 13.7438 17.1284 17.1284L17.8355 17.8355C21.6105 14.0604 21.6105 7.9398 17.8355 4.16474L17.1284 4.87184ZM10.5919 1.83889C10.6143 4.08652 9.76835 6.33946 8.05396 8.05385L8.76107 8.76096C10.6731 6.84891 11.6168 4.33416 11.5919 1.82895L10.5919 1.83889ZM8.05396 8.05385C6.33957 9.76824 4.08662 10.6142 1.839 10.5918L1.82906 11.5918C4.33427 11.6167 6.84902 10.673 8.76107 8.76096L8.05396 8.05385ZM20.1711 10.4084C17.6659 10.3835 15.1512 11.3272 13.2391 13.2392L13.9462 13.9463C15.6606 12.2319 17.9136 11.386 20.1612 11.4084L20.1711 10.4084ZM13.2391 13.2392C11.3271 15.1513 10.3834 17.666 10.4083 20.1712L11.4082 20.1613C11.3859 17.9137 12.2318 15.6607 13.9462 13.9463L13.2391 13.2392ZM12.2669 12.974L14.2115 14.9185L14.9186 14.2114L12.974 12.2669L12.2669 12.974ZM7.08145 7.78854L9.02599 9.73308L9.7331 9.02597L7.78856 7.08143L7.08145 7.78854ZM16.0246 10.1491L16.6728 12.7418L17.643 12.4993L16.9948 9.90653L16.0246 10.1491ZM12.0934 5.00539L9.5007 4.3572L9.25816 5.32735L11.8509 5.97553L12.0934 5.00539ZM9.90665 16.9946L12.4994 17.6428L12.7419 16.6726L10.1492 16.0245L9.90665 16.9946ZM5.97544 11.8509L5.32726 9.25819L4.35711 9.50073L5.0053 12.0935L5.97544 11.8509Z" fill="#26272B"/>
</svg>
