<svg width="18" height="18" viewBox="0 0 18 18" fill="none" xmlns="http://www.w3.org/2000/svg">
<g clip-path="url(#clip0_428_42)">
<path fill-rule="evenodd" clip-rule="evenodd" d="M7.68747 2.62506C7.68749 1.58954 8.52695 0.750083 9.56247 0.750061C10.598 0.750039 11.4375 1.58951 11.4375 2.62506C11.4375 3.66058 10.598 4.50004 9.56247 4.50006C8.52692 4.50008 7.68745 3.66061 7.68747 2.62506ZM6.07379 7.84224L3.07902 2.17472C2.75892 1.56895 1.99975 1.3502 1.4064 1.69277C0.813055 2.03534 0.622911 2.80218 0.987474 3.38227L4.83139 9.49871C5.06134 9.86461 5.51163 10.0259 5.92162 9.88925C7.53445 9.35164 8.95986 8.63243 10.3151 7.74138C10.5707 8.27746 10.8582 8.90542 11.1721 9.59189C9.41656 11.0738 8.29955 12.9118 7.81971 15.5622H7.12497C6.6072 15.5622 6.18747 15.9819 6.18747 16.4997C6.18747 17.0175 6.6072 17.4372 7.12497 17.4372H8.62497C9.09777 17.4372 9.49658 17.0851 9.55523 16.616C9.85861 14.1891 10.6711 12.6235 11.9912 11.3732C12.0696 11.5418 12.1491 11.7119 12.2297 11.8832C12.8183 13.1354 13.4559 14.437 14.0944 15.5753C13.6506 15.6495 13.3125 16.0352 13.3125 16.5C13.3125 17.0177 13.7322 17.4375 14.25 17.4375H15.75C16.0957 17.4375 16.4134 17.2472 16.5765 16.9423C16.7397 16.6375 16.7218 16.2676 16.53 15.9799C15.6979 14.7318 14.7863 12.9144 13.9265 11.0855C13.7649 10.7416 13.6045 10.396 13.4468 10.0541C13.5627 9.91867 13.6648 9.77972 13.7501 9.63559C14.0459 9.13591 14.1146 8.61914 13.9916 8.08597C13.8851 7.62446 13.6372 7.1721 13.3878 6.7487C13.2804 6.56638 13.1718 6.38804 13.0573 6.20018C12.8726 5.89702 12.6728 5.56909 12.4389 5.15977C12.303 4.92186 12.0698 4.75534 11.8006 4.704C11.5314 4.65267 11.2533 4.72166 11.0393 4.89284C9.44469 6.16854 7.87482 7.1445 6.07379 7.84224Z" stroke="black" stroke-linecap="round" stroke-linejoin="round"/>
</g>
<defs>
<clipPath id="clip0_428_42">
<rect width="18" height="18" fill="white"/>
</clipPath>
</defs>
</svg>
