<svg width="18" height="18" viewBox="0 0 18 18" fill="none" xmlns="http://www.w3.org/2000/svg">
<g clip-path="url(#clip0_428_36)">
<path fill-rule="evenodd" clip-rule="evenodd" d="M1.68933 2.91641C1.73309 1.91959 2.55511 1.12508 3.56252 1.12506C4.59807 1.12504 5.43754 1.96451 5.43752 3.00006C5.43751 3.68575 5.06943 4.28547 4.52008 4.61243C4.67977 4.71805 4.86263 4.82507 5.0712 4.93295C6.29186 5.5643 8.04141 6.01199 9.84329 6.19217C10.1055 6.21839 10.3605 6.24829 10.6086 6.28212C10.6218 6.28365 10.635 6.28545 10.6481 6.28753C12.2191 6.50502 13.5105 6.8815 14.5707 7.48074C15.8305 8.19282 16.7031 9.18483 17.3385 10.4558C17.5701 10.9189 17.3824 11.482 16.9193 11.7135C16.4562 11.9451 15.893 11.7574 15.6615 11.2943C15.1719 10.3152 14.5445 9.61972 13.6481 9.11305C13.089 8.79705 12.4037 8.54232 11.5463 8.35048C11.6467 9.66029 11.648 10.8445 11.3673 12.0785C10.9992 13.6958 10.1689 15.3148 8.63319 17.4264C8.32865 17.8452 7.74233 17.9377 7.32359 17.6332C6.90485 17.3287 6.81227 16.7423 7.11681 16.3236C8.5811 14.3102 9.25075 12.9292 9.53899 11.6625C9.63208 11.2534 9.68769 10.8475 9.7141 10.4243C9.4717 11.0721 9.13313 11.6863 8.67458 12.2836C7.5407 13.7605 5.7296 15.0557 3.09013 16.564C2.64058 16.8209 2.06791 16.6647 1.81102 16.2152C1.55414 15.7656 1.71032 15.1929 2.15987 14.936C4.7704 13.4443 6.2965 12.3021 7.18733 11.1417C7.90088 10.2123 8.24444 9.22009 8.33612 7.88102C6.83119 7.62746 5.36987 7.19838 4.2098 6.59837C2.80703 5.87282 1.44006 4.65899 1.68933 2.91641ZM8.0625 3.18754C8.06252 2.15202 8.90198 1.31256 9.9375 1.31254C10.973 1.31252 11.8125 2.15199 11.8125 3.18754C11.8125 4.22306 10.973 5.06252 9.9375 5.06254C8.90195 5.06256 8.06248 4.22309 8.0625 3.18754Z" stroke="black" stroke-linecap="round" stroke-linejoin="round"/>
</g>
<defs>
<clipPath id="clip0_428_36">
<rect width="18" height="18" fill="white"/>
</clipPath>
</defs>
</svg>
