<svg width="32" height="18" viewBox="0 0 32 18" fill="none" xmlns="http://www.w3.org/2000/svg">
<path d="M5.50006 6.54093H7.67029L7.21186 7.89793L7.02098 8.46295C6.84046 8.6199 6.68616 8.80203 6.56637 9.00518C6.45047 9.20174 6.36954 9.41364 6.32761 9.63351H5.50044L5.50006 6.54093ZM9.38267 7.86425C9.3737 7.86258 9.36474 7.86095 9.35576 7.85937L12.3983 6.5H14.6852L14.7271 7.44165L14.7417 7.77098L15.0501 7.88729L16.6523 8.49142L16.955 8.60559L17.1832 8.37615L17.6244 7.93255H17.8049L17.8707 8.20484L17.9707 8.61874L18.3952 8.58594C19.305 8.51566 20.1402 8.48542 20.9044 8.48558C20.7164 8.65412 20.5583 8.85037 20.4398 9.06908C20.2807 9.36276 20.1985 9.68718 20.2047 10.0186C20.2059 10.0817 20.2102 10.1444 20.2177 10.2065H11.3676C11.3765 10.132 11.3809 10.0568 11.3808 9.98112C11.3802 9.63702 11.2845 9.30255 11.1079 9.00366L10.6774 9.25799L11.1079 9.00366C10.9318 8.7056 10.6814 8.45288 10.3829 8.25859C10.0845 8.06437 9.74225 7.93117 9.38267 7.86425ZM25.6464 8.97154C25.95 9.04304 26.2182 9.1169 26.4526 9.18898L26.4158 9.21464C26.2604 9.32301 26.1767 9.47141 26.1311 9.57846C26.0837 9.68996 26.0584 9.80202 26.0439 9.88988C26.0291 9.98021 26.0229 10.062 26.0203 10.1202C26.019 10.1498 26.0186 10.1746 26.0185 10.1929L26.0185 10.2156L26.0186 10.2231L26.0186 10.2258L26.0187 10.2269L26.0187 10.2274L26.0187 10.2277C26.0187 10.2278 26.0187 10.2279 26.5185 10.2158L26.0187 10.2279L26.0221 10.3707H25.6267V9.74591V9.23011L25.14 9.24525C25.076 9.09334 24.9927 8.94891 24.8923 8.81448C25.1646 8.86427 25.4158 8.91723 25.6464 8.97154ZM8.27666 9.65313C8.41167 9.54276 8.61264 9.46851 8.83836 9.46824C8.83838 9.46824 8.83841 9.46824 8.83843 9.46824C8.83848 9.46824 8.83853 9.46824 8.83858 9.46824C8.83859 9.46824 8.83859 9.46824 8.83859 9.46824C9.00523 9.46832 9.16216 9.50912 9.28872 9.5783L9.52855 9.13958L9.28872 9.5783C9.4152 9.64744 9.49679 9.73639 9.53973 9.82122C9.58137 9.90347 9.5895 9.9858 9.57052 10.0637C9.55103 10.1437 9.49888 10.2338 9.39986 10.3147C9.30005 10.3963 9.16213 10.4598 9.00005 10.4862C8.83816 10.5125 8.67112 10.4984 8.52303 10.4483C8.37474 10.398 8.26307 10.3179 8.1924 10.2314C8.12324 10.1468 8.09603 10.0607 8.09594 9.9841C8.0962 9.8835 8.14455 9.76113 8.27666 9.65313ZM22.1018 10.2319C22.0327 10.1473 22.0055 10.0611 22.0054 9.98445C22.0055 9.88376 22.0539 9.76119 22.1862 9.65305C22.3213 9.54263 22.5225 9.46839 22.7484 9.46824C22.9151 9.46829 23.0721 9.50907 23.1988 9.57826C23.3254 9.64744 23.4071 9.73646 23.4501 9.82139C23.4918 9.90373 23.5 9.98616 23.481 10.0642C23.4615 10.1443 23.4093 10.2344 23.3102 10.3154C23.2103 10.3971 23.0722 10.4607 22.91 10.487C22.748 10.5133 22.5808 10.4992 22.4326 10.449C22.2842 10.3987 22.1725 10.3185 22.1018 10.2319L21.7146 10.5482L22.1018 10.2319Z" stroke="black"/>
</svg>
