<svg width="20" height="20" viewBox="0 0 20 20" fill="none" xmlns="http://www.w3.org/2000/svg">
<path d="M4.61872 4.61867C2.83607 6.40137 1.93852 8.66098 1.48492 10.4557L9.54439 18.5138C11.3391 18.0618 13.5986 17.1643 15.3813 15.38C17.1639 13.5957 18.0615 11.3376 18.5151 9.54289L10.4556 1.48639C8.66091 1.93839 6.40136 2.83597 4.61872 4.61867ZM11.7939 7.30819L12.6918 6.41262C12.8124 6.30321 12.9705 6.24438 13.1332 6.24834C13.296 6.25229 13.451 6.31871 13.5662 6.43385C13.6813 6.54898 13.7477 6.704 13.7517 6.86677C13.7556 7.02955 13.6968 7.1876 13.5874 7.30819L12.6918 8.20617L13.1402 8.65496C13.2591 8.77388 13.3259 8.93517 13.3259 9.10334C13.3259 9.27152 13.2591 9.43281 13.1402 9.55173C13.0213 9.67065 12.86 9.73746 12.6918 9.73746C12.5237 9.73746 12.3624 9.67065 12.2435 9.55173L11.7951 9.10334L10.8967 10.0001L11.3451 10.4485C11.464 10.5674 11.5308 10.7287 11.5308 10.8969C11.5308 11.0651 11.464 11.2264 11.3451 11.3453C11.2262 11.4642 11.0649 11.531 10.8967 11.531C10.7286 11.531 10.5673 11.4642 10.4484 11.3453L10 10.8969L9.10325 11.7941L9.55163 12.2425C9.61051 12.3013 9.65722 12.3712 9.68908 12.4482C9.72095 12.5251 9.73735 12.6076 9.73735 12.6908C9.73735 12.7741 9.72095 12.8566 9.68908 12.9335C9.65722 13.0104 9.61051 13.0803 9.55163 13.1392C9.49275 13.1981 9.42284 13.2448 9.34591 13.2767C9.26898 13.3086 9.18652 13.325 9.10325 13.325C9.01998 13.325 8.93753 13.3086 8.8606 13.2767C8.78366 13.2448 8.71376 13.1981 8.65488 13.1392L8.2061 12.692L7.30815 13.5876C7.18757 13.697 7.02952 13.7559 6.86675 13.7519C6.70398 13.7479 6.54897 13.6815 6.43384 13.5664C6.31871 13.4513 6.25229 13.2962 6.24833 13.1335C6.24438 12.9707 6.3032 12.8126 6.41261 12.692L7.30815 11.7941L6.85978 11.3453C6.74086 11.2264 6.67406 11.0651 6.67406 10.8969C6.67406 10.7287 6.74086 10.5674 6.85978 10.4485C6.9787 10.3296 7.13998 10.2628 7.30815 10.2628C7.47633 10.2628 7.63761 10.3296 7.75653 10.4485L8.2049 10.8969L9.10325 10.0001L8.65488 9.55173C8.596 9.49285 8.54929 9.42294 8.51743 9.34601C8.48556 9.26907 8.46916 9.18662 8.46916 9.10334C8.46916 9.02007 8.48556 8.93761 8.51743 8.86068C8.54929 8.78374 8.596 8.71384 8.65488 8.65496C8.71376 8.59607 8.78366 8.54936 8.8606 8.5175C8.93753 8.48563 9.01998 8.46923 9.10325 8.46923C9.18652 8.46923 9.26898 8.48563 9.34591 8.5175C9.42284 8.54936 9.49275 8.59607 9.55163 8.65496L10 9.10334L10.8967 8.20617L10.4484 7.75778C10.3295 7.63886 10.2627 7.47757 10.2627 7.30939C10.2627 7.14122 10.3295 6.97993 10.4484 6.86101C10.5673 6.74209 10.7286 6.67528 10.8967 6.67528C11.0649 6.67528 11.2262 6.74209 11.3451 6.86101L11.7939 7.30819ZM18.8618 7.73528C19.1555 5.54437 19.0225 2.90347 18.0583 1.94121C17.094 0.978941 14.4552 0.844345 12.2644 1.13764C12.1635 1.1513 12.0571 1.16657 11.9466 1.18385L18.8168 8.05429C18.8329 7.9426 18.8481 7.83613 18.8618 7.73528ZM1.1382 12.265C0.844506 14.4559 0.977492 17.0968 1.94174 18.059C2.6143 18.732 4.10767 19 5.69465 19C6.37713 18.9989 7.0588 18.9529 7.73523 18.8622C7.83608 18.8485 7.94255 18.8333 8.05303 18.816L1.1828 11.9455C1.16713 12.0576 1.15186 12.1641 1.1382 12.265Z" stroke="black" stroke-width="0.8"/>
</svg>
