<svg width="18" height="18" viewBox="0 0 18 18" fill="none" xmlns="http://www.w3.org/2000/svg">
<path fill-rule="evenodd" clip-rule="evenodd" d="M9.74999 2.8125C9.75001 1.77698 10.5895 0.937522 11.625 0.9375C12.6605 0.937478 13.5 1.77695 13.5 2.8125C13.5 3.84802 12.6605 4.68748 11.625 4.6875C10.5894 4.68752 9.74997 3.84805 9.74999 2.8125ZM7.23605 6.35125C6.10712 6.28175 4.62375 6.6631 3.32568 8.12332C2.98169 8.51029 2.38912 8.54513 2.00214 8.20113C1.61517 7.85713 1.58034 7.26456 1.92434 6.87759C3.62627 4.96305 5.68026 4.37692 7.35126 4.4798C8.17432 4.53047 8.92514 4.74949 9.50214 5.07885C10.0096 5.36853 10.6527 5.90927 10.6867 6.71042C10.6873 6.72422 10.6876 6.73793 10.6877 6.75154C10.6884 6.75862 10.6917 6.78467 10.7073 6.83063C10.727 6.88855 10.7622 6.96594 10.8199 7.05819C10.9361 7.2437 11.1263 7.46142 11.3985 7.67012C11.8547 8.01987 12.5195 8.32704 13.3834 8.41338C13.6172 8.09292 13.8778 7.81287 14.1484 7.59988C14.3474 7.44335 14.5912 7.29185 14.8677 7.2094C15.1469 7.12618 15.5459 7.09208 15.9308 7.31425C16.3156 7.53644 16.4857 7.89902 16.5532 8.18243C16.6201 8.46317 16.6108 8.75007 16.5747 9.00061C16.5017 9.50723 16.2892 10.0684 15.986 10.5937C15.6827 11.1189 15.3029 11.5835 14.9007 11.9001C14.7017 12.0566 14.4579 12.2081 14.1814 12.2905C13.9022 12.3738 13.5032 12.4079 13.1183 12.1857C12.7334 11.9635 12.5634 11.6009 12.4959 11.3175C12.429 11.0368 12.4383 10.7499 12.4744 10.4993C12.4895 10.3945 12.5106 10.2873 12.5372 10.1785C11.6219 9.9892 10.8537 9.615 10.2578 9.15817C10.1238 9.05551 9.99783 8.94805 9.88034 8.83685C9.71719 9.12821 9.52941 9.44243 9.31843 9.7724C9.60164 9.9947 9.88691 10.2256 10.1136 10.4522C10.5059 10.8443 10.8777 11.3649 10.9202 12.0855C10.9603 12.7661 10.6937 13.4461 10.2616 14.1491C10.0473 14.4978 9.77549 14.8785 9.44269 15.2988C9.73685 15.4569 9.93683 15.7676 9.93683 16.125C9.93683 16.6428 9.5171 17.0625 8.99933 17.0625H7.50001C7.12893 17.0625 6.79277 16.8436 6.64265 16.5043C6.49253 16.1649 6.5567 15.7689 6.80632 15.4944C7.73108 14.4771 8.31759 13.7312 8.6642 13.1673C9.0172 12.593 9.05527 12.3121 9.04841 12.1958C9.04392 12.1195 9.01713 12.0073 8.78805 11.7783C8.63749 11.6278 8.46198 11.4847 8.23997 11.3103C7.25218 12.6016 5.9727 13.99 4.45596 15.1302L4.78792 15.4622C5.15404 15.8283 5.15404 16.4219 4.78792 16.788C4.42181 17.1541 3.82821 17.1541 3.4621 16.788L2.3371 15.663C2.13602 15.4619 2.03708 15.1805 2.06811 14.8978C2.09913 14.6151 2.25678 14.3618 2.49668 14.2092C4.24672 13.0955 5.73761 11.5172 6.84586 10.0457C6.71719 9.87204 6.61238 9.68885 6.53902 9.49324C6.31253 8.88927 6.44697 8.35128 6.66062 7.92426C6.81539 7.61494 7.05418 7.28714 7.26506 6.99765C7.30555 6.94208 7.34501 6.88791 7.38265 6.83556C7.48122 6.69845 7.58157 6.55579 7.68177 6.40428C7.54231 6.37929 7.39335 6.36094 7.23605 6.35125Z" stroke="black" stroke-linecap="round" stroke-linejoin="round"/>
</svg>
