<svg width="18" height="18" viewBox="0 0 18 18" fill="none" xmlns="http://www.w3.org/2000/svg">
<path d="M1.63797 14.3295L2.11873 14.4669L2.11873 14.4669L1.63797 14.3295ZM1.83995 13.6226L1.35919 13.4852L1.35919 13.4852L1.83995 13.6226ZM5.24997 12L5.46634 11.5492L5.46634 11.5492L5.24997 12ZM7.51197 12.5272L7.51374 13.0272L7.51374 13.0272L7.51197 12.5272ZM7.08976 16.3854L7.04656 15.8873L7.04656 15.8873L7.08976 16.3854ZM2.95649 16.4484L2.99336 15.9498L2.99336 15.9498L2.95649 16.4484ZM9.17877 11.3953L8.74379 11.1488L8.74379 11.1488L9.17877 11.3953ZM14.671 1.7054L15.106 1.95195L15.106 1.95195L14.671 1.7054ZM16.6651 2.83138L17.1008 3.07653L17.1008 3.07653L16.6651 2.83138ZM12.5171 5.53625C12.2805 5.39386 11.9732 5.47024 11.8308 5.70685C11.6885 5.94345 11.7648 6.25068 12.0014 6.39307L12.5171 5.53625ZM13.9296 7.5534C14.1662 7.69578 14.4734 7.6194 14.6158 7.3828C14.7582 7.1462 14.6818 6.83897 14.4452 6.69658L13.9296 7.5534ZM13.7077 3.47393C13.4711 3.33155 13.1639 3.40793 13.0215 3.64453C12.8791 3.88114 12.9555 4.18837 13.1921 4.33075L13.7077 3.47393ZM15.1203 5.49109C15.3569 5.63347 15.6641 5.55709 15.8065 5.32049C15.9489 5.08388 15.8725 4.77665 15.6359 4.63427L15.1203 5.49109ZM2.11873 14.4669L2.32071 13.7599L1.35919 13.4852L1.15721 14.1922L2.11873 14.4669ZM5.03361 12.4508C5.98489 12.9074 6.85313 13.0295 7.51374 13.0272L7.5102 12.0272C6.97751 12.0291 6.26212 11.9312 5.46634 11.5492L5.03361 12.4508ZM7.04656 15.8873C6.32017 15.9503 5.44684 16 4.49997 16V17C5.481 17 6.38368 16.9486 7.13297 16.8836L7.04656 15.8873ZM4.49997 16C3.89948 16 3.40209 15.98 2.99336 15.9498L2.91962 16.9471C3.35534 16.9793 3.87746 17 4.49997 17V16ZM9.61376 11.6419L15.106 1.95195L14.236 1.45885L8.74379 11.1488L9.61376 11.6419ZM15.6671 0.625C15.0747 0.625 14.5281 0.9435 14.236 1.45885L15.106 1.95195C15.2205 1.74988 15.4349 1.625 15.6671 1.625V0.625ZM7.51374 13.0272C8.48789 13.0237 9.20743 12.3588 9.61376 11.6419L8.74379 11.1488C8.43415 11.6951 7.98801 12.0255 7.5102 12.0272L7.51374 13.0272ZM1.15721 14.1922C0.975703 14.8274 1.0399 15.4822 1.35108 16.0051C1.66788 16.5375 2.21996 16.8953 2.91962 16.9471L2.99336 15.9498C2.61323 15.9217 2.35733 15.7406 2.21045 15.4938C2.05796 15.2375 2.00279 14.8727 2.11873 14.4669L1.15721 14.1922ZM15.6671 1.625C16.1604 1.625 16.4711 2.15628 16.2293 2.58623L17.1008 3.07653C17.7177 1.97997 16.9253 0.625 15.6671 0.625V1.625ZM2.32071 13.7599C2.67598 12.5165 3.92287 11.9176 5.03361 12.4508L5.46634 11.5492C3.74259 10.7218 1.86767 11.7055 1.35919 13.4852L2.32071 13.7599ZM10.8753 14H14.6253V13H10.8753V14ZM14.6253 16H10.8753V17H14.6253V16ZM15.6253 15C15.6253 15.5523 15.1776 16 14.6253 16V17C15.7299 17 16.6253 16.1046 16.6253 15H15.6253ZM14.6253 14C15.1776 14 15.6253 14.4477 15.6253 15H16.6253C16.6253 13.8954 15.7299 13 14.6253 13V14ZM10.8753 13C10.7757 13 10.6775 13.0073 10.5813 13.0215L10.7274 14.0108C10.7754 14.0037 10.8248 14 10.8753 14V13ZM10.5813 13.0215C9.61598 13.1641 8.87532 13.9951 8.87532 15H9.87532C9.87532 14.4982 10.2454 14.082 10.7274 14.0108L10.5813 13.0215ZM16.2293 2.58623L10.2186 13.271L11.0901 13.7613L17.1008 3.07653L16.2293 2.58623ZM10.8753 16C10.3981 16 9.99792 15.6652 9.8989 15.2173L8.92247 15.4332C9.1206 16.3294 9.91906 17 10.8753 17V16ZM9.8989 15.2173C9.88353 15.1478 9.87532 15.0752 9.87532 15H8.87532C8.87532 15.1482 8.89153 15.2933 8.92247 15.4332L9.8989 15.2173ZM7.13297 16.8836C8.1414 16.7961 9.04731 16.3547 9.75359 15.6892L9.06778 14.9614C8.51162 15.4855 7.81254 15.8209 7.04656 15.8873L7.13297 16.8836ZM12.0014 6.39307L13.9296 7.5534L14.4452 6.69658L12.5171 5.53625L12.0014 6.39307ZM13.1921 4.33075L15.1203 5.49109L15.6359 4.63427L13.7077 3.47393L13.1921 4.33075Z" fill="#26272B"/>
</svg>
