<svg width="26" height="26" viewBox="0 0 26 26" fill="none" xmlns="http://www.w3.org/2000/svg">
<path d="M20.3333 7.49999V11.1667M20.3333 11.1667V14.8333M20.3333 11.1667H24M20.3333 11.1667H16.6667M13.9167 6.125C13.9167 6.6667 13.81 7.2031 13.6027 7.70356C13.3954 8.20403 13.0915 8.65877 12.7085 9.04181C12.3254 9.42485 11.8707 9.72869 11.3702 9.936C10.8698 10.1433 10.3334 10.25 9.79167 10.25C9.24996 10.25 8.71357 10.1433 8.2131 9.936C7.71263 9.72869 7.25789 9.42485 6.87485 9.04181C6.49181 8.65877 6.18796 8.20403 5.98066 7.70356C5.77336 7.2031 5.66667 6.6667 5.66667 6.125C5.66667 5.03098 6.10126 3.98177 6.87485 3.20818C7.64844 2.4346 8.69765 2 9.79167 2C10.8857 2 11.9349 2.4346 12.7085 3.20818C13.4821 3.98177 13.9167 5.03098 13.9167 6.125ZM2 21.8428V21.7083C2 19.6418 2.82091 17.66 4.28213 16.1988C5.74335 14.7376 7.72519 13.9167 9.79167 13.9167C11.8581 13.9167 13.84 14.7376 15.3012 16.1988C16.7624 17.66 17.5833 19.6418 17.5833 21.7083V21.8415C15.2311 23.2582 12.5363 24.0046 9.79044 24C6.94144 24 4.27578 23.2116 2 21.8415V21.8428Z" stroke="black" stroke-width="2" stroke-linecap="round" stroke-linejoin="round"/>
</svg>
