<svg width="20" height="20" viewBox="0 0 20 20" fill="none" xmlns="http://www.w3.org/2000/svg">
<path d="M14.455 17.7157C14.455 17.7157 13.609 11.7838 11.8 8.65C9.99098 5.5162 5.54498 2.2843 5.54498 2.2843" stroke="black" stroke-linecap="round"/>
<path d="M18.8767 10.522C14.0077 9.45373 7.35313 13.9132 6.01933 17.9362M13.9726 2.08813C12.6334 6.06613 6.10663 10.4608 1.26013 9.50593" stroke="black" stroke-linecap="round"/>
<path d="M5.5 2.20421C6.86757 1.41302 8.42006 0.997576 10 1.00001C14.9707 1.00001 19 5.02931 19 10C19 14.9707 14.9707 19 10 19C5.0293 19 1 14.9707 1 10C1 8.36111 1.4383 6.82301 2.2042 5.50001" stroke="black" stroke-linecap="round"/>
</svg>
