<svg width="29" height="24" viewBox="0 0 29 24" fill="none" xmlns="http://www.w3.org/2000/svg">
<path d="M7.89492 4.9187C7.66308 5.26159 7.35375 5.55292 6.98864 5.77226C6.62353 5.99159 6.21148 6.13362 5.7814 6.18838C5.29199 6.25337 4.80643 6.32317 4.32088 6.39899C2.96467 6.6096 2 7.72524 2 9.00936V19.1499C2 19.8681 2.30531 20.5569 2.84877 21.0647C3.39222 21.5725 4.12931 21.8578 4.89787 21.8578H24.217C24.9856 21.8578 25.7227 21.5725 26.2661 21.0647C26.8096 20.5569 27.1149 19.8681 27.1149 19.1499V9.00936C27.1149 7.72524 26.149 6.6096 24.794 6.39899C24.3081 6.32334 23.8212 6.25313 23.3335 6.18838C22.9037 6.13346 22.4919 5.99135 22.127 5.77202C21.7621 5.55269 21.453 5.26145 21.2213 4.9187L20.1626 3.33491C19.9248 2.97399 19.5975 2.67191 19.2083 2.45425C18.8191 2.23659 18.3795 2.10976 17.9267 2.08449C15.6822 1.97184 13.4328 1.97184 11.1882 2.08449C10.7354 2.10976 10.2958 2.23659 9.90664 2.45425C9.51744 2.67191 9.1901 2.97399 8.95232 3.33491L7.89492 4.9187Z" stroke="black" stroke-width="1.8" stroke-linecap="round" stroke-linejoin="round"/>
<path d="M20.3532 12.8316C20.3532 14.2679 19.7426 15.6454 18.6557 16.6611C17.5688 17.6767 16.0946 18.2473 14.5575 18.2473C13.0203 18.2473 11.5462 17.6767 10.4593 16.6611C9.37234 15.6454 8.76172 14.2679 8.76172 12.8316C8.76172 11.3953 9.37234 10.0178 10.4593 9.00211C11.5462 7.98647 13.0203 7.41589 14.5575 7.41589C16.0946 7.41589 17.5688 7.98647 18.6557 9.00211C19.7426 10.0178 20.3532 11.3953 20.3532 12.8316ZM23.2511 10.1237H23.2614V10.1334H23.2511V10.1237Z" stroke="black" stroke-width="1.8" stroke-linecap="round" stroke-linejoin="round"/>
</svg>
