<svg width="27" height="27" viewBox="0 0 27 27" fill="none" xmlns="http://www.w3.org/2000/svg">
<path d="M12.5357 0H14.4643V2.89286H12.5357V0ZM24.1071 12.5357H27V14.4643H24.1071V12.5357ZM12.5357 24.1071H14.4643V27H12.5357V24.1071ZM0 12.5357H2.89286V14.4643H0V12.5357ZM3.32679 4.70861L4.69029 3.34607L6.7365 5.39036L5.37107 6.75386L3.32679 4.70861ZM20.25 5.38168L22.2943 3.33643L23.6578 4.69993L21.6125 6.74614L20.25 5.38168ZM20.2519 21.6154L21.6154 20.2519L23.6616 22.2981L22.2981 23.6616L20.2519 21.6154ZM3.34607 22.3039L5.39036 20.25L6.75 21.6193L4.70571 23.6636L3.34607 22.3039ZM13.5 5.78571C11.9743 5.78571 10.4828 6.23815 9.21417 7.08581C7.94556 7.93346 6.95681 9.13827 6.37293 10.5479C5.78905 11.9575 5.63628 13.5086 5.93394 15.005C6.2316 16.5014 6.96631 17.876 8.04518 18.9548C9.12404 20.0337 10.4986 20.7684 11.995 21.0661C13.4914 21.3637 15.0425 21.2109 16.4521 20.6271C17.8617 20.0432 19.0665 19.0544 19.9142 17.7858C20.7619 16.5172 21.2143 15.0257 21.2143 13.5C21.2143 11.454 20.4015 9.49189 18.9548 8.04518C17.5081 6.59847 15.546 5.78571 13.5 5.78571ZM13.5 19.2857C11.9655 19.2857 10.4939 18.6762 9.40888 17.5911C8.32385 16.5061 7.71429 15.0345 7.71429 13.5C7.71429 11.9655 8.32385 10.4939 9.40888 9.40888C10.4939 8.32385 11.9655 7.71429 13.5 7.71429V19.2857Z" fill="black"/>
</svg>
