<svg width="22" height="23" viewBox="0 0 22 23" fill="none" xmlns="http://www.w3.org/2000/svg">
<path fill-rule="evenodd" clip-rule="evenodd" d="M16.4 10.7986C16.1991 10.5979 15.9268 10.4852 15.6429 10.4852C15.3589 10.4852 15.0866 10.5979 14.8857 10.7986L12.0714 13.6129V3.07143C12.0714 2.78727 11.9585 2.51475 11.7576 2.31381C11.5567 2.11288 11.2842 2 11 2C10.7158 2 10.4433 2.11288 10.2424 2.31381C10.0415 2.51475 9.92857 2.78727 9.92857 3.07143V13.6129L7.11429 10.7986C6.91118 10.6093 6.64254 10.5063 6.36497 10.5112C6.08739 10.5161 5.82256 10.6285 5.62625 10.8248C5.42995 11.0211 5.3175 11.286 5.31261 11.5635C5.30771 11.8411 5.41074 12.1098 5.6 12.3129L10.2429 16.9557L11 17.7143L11.7571 16.9571L16.4 12.3143C16.4996 12.2148 16.5785 12.0966 16.6324 11.9666C16.6863 11.8366 16.7141 11.6972 16.7141 11.5564C16.7141 11.4157 16.6863 11.2763 16.6324 11.1463C16.5785 11.0162 16.4996 10.8981 16.4 10.7986ZM3.14286 14.5C3.14286 14.2158 3.02997 13.9433 2.82904 13.7424C2.62811 13.5415 2.35559 13.4286 2.07143 13.4286C1.78727 13.4286 1.51475 13.5415 1.31381 13.7424C1.11288 13.9433 1 14.2158 1 14.5V19.1429C1 19.9006 1.30102 20.6273 1.83684 21.1632C2.37266 21.699 3.09938 22 3.85714 22H18.1429C18.9006 22 19.6273 21.699 20.1632 21.1632C20.699 20.6273 21 19.9006 21 19.1429V14.5C21 14.2158 20.8871 13.9433 20.6862 13.7424C20.4853 13.5415 20.2127 13.4286 19.9286 13.4286C19.6444 13.4286 19.3719 13.5415 19.171 13.7424C18.97 13.9433 18.8571 14.2158 18.8571 14.5V19.1429C18.8571 19.3323 18.7819 19.514 18.6479 19.6479C18.514 19.7819 18.3323 19.8571 18.1429 19.8571H3.85714C3.6677 19.8571 3.48602 19.7819 3.35207 19.6479C3.21811 19.514 3.14286 19.3323 3.14286 19.1429V14.5Z" fill="black"/>
</svg>
