<svg width="22" height="23" viewBox="0 0 22 23" fill="none" xmlns="http://www.w3.org/2000/svg">
<path d="M10.0512 3.89771H3.78915C3.31464 3.89771 2.85956 4.0862 2.52403 4.42173C2.1885 4.75726 2 5.21234 2 5.68685V18.2109C2 18.6854 2.1885 19.1405 2.52403 19.476C2.85956 19.8115 3.31464 20 3.78915 20H16.3132C16.7877 20 17.2428 19.8115 17.5783 19.476C17.9138 19.1405 18.1023 18.6854 18.1023 18.2109V11.9489" stroke="black" stroke-width="2" stroke-linecap="round" stroke-linejoin="round"/>
<path d="M16.7605 2.55582C17.1163 2.19993 17.599 2 18.1023 2C18.6056 2 19.0883 2.19993 19.4442 2.55582C19.8001 2.9117 20 3.39438 20 3.89768C20 4.40097 19.8001 4.88365 19.4442 5.23954L10.9457 13.738L7.36743 14.6326L8.26201 11.0543L16.7605 2.55582Z" stroke="black" stroke-width="2" stroke-linecap="round" stroke-linejoin="round"/>
</svg>
