<svg width="30" height="24" viewBox="0 0 30 24" fill="none" xmlns="http://www.w3.org/2000/svg">
<path d="M2 11.375C2 7.26625 2 5.21125 3.1804 3.8275C3.39632 3.57456 3.63754 3.34262 3.9006 3.135C5.341 2 7.4756 2 11.75 2C16.0231 2 18.1603 2 19.5994 3.135C19.8625 3.34262 20.1037 3.57456 20.3196 3.8275C21.5 5.2125 21.5 7.265 21.5 11.375V12.625C21.5 16.7337 21.5 18.7888 20.3196 20.1725C20.1037 20.4254 19.8624 20.6574 19.5994 20.865C18.159 22 16.0244 22 11.75 22C7.4769 22 5.3397 22 3.9006 20.865C3.63754 20.6574 3.39632 20.4254 3.1804 20.1725C2 18.7875 2 16.735 2 12.625V11.375ZM21.5 8.875L22.3554 8.46375C24.8852 7.2475 26.1514 6.63875 27.0744 7.18875C28 7.73875 28 9.09875 28 11.8175V12.1825C28 14.9025 28 16.2612 27.0757 16.8112C26.1501 17.3612 24.8852 16.7525 22.3567 15.5363L21.5 15.125V8.875Z" stroke="black" stroke-width="1.8"/>
</svg>
