<svg width="18" height="26" viewBox="0 0 18 26" fill="none" xmlns="http://www.w3.org/2000/svg">
<path d="M7.54664 1.3C7.54664 0.955219 7.6659 0.624558 7.87819 0.380761C8.09048 0.136964 8.37841 0 8.67863 0C8.97886 0 9.26678 0.136964 9.47907 0.380761C9.69137 0.624558 9.81063 0.955219 9.81063 1.3V10.7975C10.3308 10.9847 10.837 11.2389 11.32 11.559V3.03333C11.32 2.68855 11.4392 2.35789 11.6515 2.11409C11.8638 1.8703 12.1517 1.73333 12.452 1.73333C12.7522 1.73333 13.0401 1.8703 13.2524 2.11409C13.4647 2.35789 13.5839 2.68855 13.5839 3.03333V15.6716C12.8911 15.8063 12.235 16.1242 11.6674 16.6001C11.0999 17.076 10.6364 17.6969 10.3137 18.4138C11.5644 17.7007 12.9422 17.3308 14.3386 17.3333C14.5388 17.3333 14.7307 17.242 14.8722 17.0795C15.0138 16.917 15.0933 16.6965 15.0933 16.4667V13.8482C15.0968 12.8203 15.4541 11.8358 16.0874 11.1095C16.3013 10.8756 16.5864 10.747 16.8817 10.7511C17.177 10.7552 17.4593 10.8917 17.6682 11.1315C17.8771 11.3712 17.9961 11.6953 17.9999 12.0345C18.0037 12.3736 17.8918 12.701 17.6883 12.9468C17.5836 13.0666 17.5005 13.2088 17.4437 13.3655C17.3869 13.5221 17.3575 13.6901 17.3573 13.8597V17.3333H17.3522C17.2928 19.0765 16.6633 20.7299 15.5893 21.9636L13.8425 23.9697C12.7104 25.2696 11.1751 25.9999 9.57417 26H7.54664C5.54515 26 3.62563 25.0869 2.21036 23.4616C0.79509 21.8363 0 19.6319 0 17.3333V6.5C6.32674e-09 6.15522 0.119264 5.82456 0.331554 5.58076C0.543844 5.33696 0.831772 5.2 1.132 5.2C1.43222 5.2 1.72015 5.33696 1.93244 5.58076C2.14473 5.82456 2.26399 6.15522 2.26399 6.5V12.8775C2.72685 12.3552 3.23499 11.9161 3.77332 11.559V3.03333C3.77332 2.68855 3.89258 2.35789 4.10487 2.11409C4.31716 1.8703 4.60509 1.73333 4.90531 1.73333C5.20554 1.73333 5.49347 1.8703 5.70576 2.11409C5.91805 2.35789 6.03731 2.68855 6.03731 3.03333V10.5745C6.53539 10.4589 7.04051 10.4 7.54664 10.4V1.3Z" fill="black"/>
</svg>
