<svg width="20" height="28" viewBox="0 0 20 28" fill="none" xmlns="http://www.w3.org/2000/svg">
<path d="M7.9094 4.80714C7.9094 4.55107 7.86472 4.2975 7.77791 4.06091C7.6911 3.82433 7.56387 3.60936 7.40347 3.42828C7.24307 3.24721 7.05265 3.10357 6.84307 3.00558C6.6335 2.90758 6.40889 2.85714 6.18205 2.85714C5.95521 2.85714 5.73059 2.90758 5.52102 3.00558C5.31145 3.10357 5.12103 3.24721 4.96063 3.42828C4.80023 3.60936 4.67299 3.82433 4.58618 4.06091C4.49938 4.2975 4.4547 4.55107 4.4547 4.80714V8.52143M7.9094 4.80714V2.95C7.9094 2.43283 8.09138 1.93684 8.41532 1.57114C8.73927 1.20545 9.17862 1 9.63674 1C10.0949 1 10.5342 1.20545 10.8582 1.57114C11.1821 1.93684 11.3641 2.43283 11.3641 2.95V4.80714M7.9094 4.80714L7.99165 12.1429M4.4547 8.52143C4.4547 8.00426 4.27271 7.50827 3.94877 7.14257C3.62483 6.77687 3.18547 6.57143 2.72735 6.57143C2.26923 6.57143 1.82987 6.77687 1.50593 7.14257C1.18199 7.50827 1 8.00426 1 8.52143V18.6429C1 20.8593 1.77995 22.985 3.16827 24.5522C4.55658 26.1195 6.43955 27 8.40292 27H10.6161C12.1431 26.9998 13.6075 26.3148 14.6872 25.0958L16.5867 22.9514C17.6666 21.7326 18.2733 20.0794 18.2735 18.3556L18.2768 15.8497C18.2779 15.6305 18.356 15.4208 18.4939 15.2666C18.6544 15.0854 18.7816 14.8704 18.8685 14.6338C18.9553 14.3971 19 14.1435 19 13.8873C19 13.6312 18.9553 13.3775 18.8685 13.1409C18.7816 12.9042 18.6544 12.6892 18.4939 12.5081C18.3335 12.327 18.143 12.1833 17.9334 12.0853C17.7238 11.9872 17.4991 11.9368 17.2722 11.9368C17.0453 11.9368 16.8206 11.9872 16.611 12.0853C16.4013 12.1833 16.2109 12.327 16.0504 12.5081C15.2679 13.3904 14.8263 14.5863 14.8221 15.8349M4.4547 8.52143V14M11.3641 4.80714V13.0714M11.3641 4.80714C11.3641 4.28997 11.5461 3.79398 11.87 3.42828C12.194 3.06259 12.6333 2.85714 13.0914 2.85714C13.5496 2.85714 13.9889 3.06259 14.3129 3.42828C14.6368 3.79398 14.8188 4.28997 14.8188 4.80714V17.7143M14.8188 17.7143C14.171 17.7139 13.5294 17.8579 12.931 18.1379C12.3325 18.4179 11.7889 18.8285 11.3312 19.3461M14.8188 17.7143H14.821" stroke="black" stroke-width="2" stroke-linecap="round" stroke-linejoin="round"/>
</svg>
