<svg width="23" height="23" viewBox="0 0 23 23" fill="none" xmlns="http://www.w3.org/2000/svg">
<path d="M11.5 0C5.1589 0 0 5.1589 0 11.5C0 17.8411 5.1589 23 11.5 23C17.8411 23 23 17.8411 23 11.5C23 5.1589 17.8411 0 11.5 0ZM11.5 4.715C11.7957 4.715 12.0847 4.80268 12.3306 4.96695C12.5764 5.13123 12.768 5.36471 12.8812 5.63789C12.9944 5.91106 13.024 6.21166 12.9663 6.50166C12.9086 6.79166 12.7662 7.05805 12.5571 7.26713C12.348 7.4762 12.0817 7.61859 11.7917 7.67627C11.5017 7.73396 11.2011 7.70435 10.9279 7.5912C10.6547 7.47805 10.4212 7.28643 10.257 7.04058C10.0927 6.79473 10.005 6.50568 10.005 6.21C10.005 5.8135 10.1625 5.43324 10.4429 5.15287C10.7232 4.87251 11.1035 4.715 11.5 4.715ZM14.26 17.71H9.2C8.956 17.71 8.722 17.6131 8.54946 17.4405C8.37693 17.268 8.28 17.034 8.28 16.79C8.28 16.546 8.37693 16.312 8.54946 16.1395C8.722 15.9669 8.956 15.87 9.2 15.87H10.81V10.81H9.89C9.646 10.81 9.412 10.7131 9.23946 10.5405C9.06693 10.368 8.97 10.134 8.97 9.89C8.97 9.646 9.06693 9.412 9.23946 9.23946C9.412 9.06693 9.646 8.97 9.89 8.97H11.73C11.974 8.97 12.208 9.06693 12.3805 9.23946C12.5531 9.412 12.65 9.646 12.65 9.89V15.87H14.26C14.504 15.87 14.738 15.9669 14.9105 16.1395C15.0831 16.312 15.18 16.546 15.18 16.79C15.18 17.034 15.0831 17.268 14.9105 17.4405C14.738 17.6131 14.504 17.71 14.26 17.71Z" fill="black"/>
</svg>
