<svg width="25" height="25" viewBox="0 0 25 25" fill="none" xmlns="http://www.w3.org/2000/svg">
<path d="M12.5 1C6.14937 1 1 6.14937 1 12.5C1 18.8506 6.14937 24 12.5 24C18.8506 24 24 18.8506 24 12.5C24 6.14937 18.8506 1 12.5 1Z" stroke="black" stroke-width="2" stroke-miterlimit="10"/>
<path d="M10.75 10.75H12.75V18" stroke="black" stroke-width="2" stroke-linecap="round" stroke-linejoin="round"/>
<path d="M10 18.25H15.5" stroke="black" stroke-width="2" stroke-miterlimit="10" stroke-linecap="round"/>
<path d="M12.5 5.125C12.1786 5.125 11.8644 5.2203 11.5972 5.39886C11.33 5.57742 11.1217 5.83121 10.9987 6.12814C10.8757 6.42507 10.8435 6.7518 10.9062 7.06702C10.9689 7.38224 11.1237 7.67179 11.351 7.89905C11.5782 8.12631 11.8678 8.28108 12.183 8.34378C12.4982 8.40648 12.8249 8.3743 13.1219 8.2513C13.4188 8.12831 13.6726 7.92003 13.8511 7.6528C14.0297 7.38557 14.125 7.07139 14.125 6.75C14.125 6.31902 13.9538 5.9057 13.649 5.60095C13.3443 5.2962 12.931 5.125 12.5 5.125Z" fill="black"/>
</svg>
