<svg width="24" height="26" viewBox="0 0 24 26" fill="none" xmlns="http://www.w3.org/2000/svg">
<path d="M8.62553 16.3764L15.376 9.62581M10.8757 6.25053L11.3966 5.64748C12.4517 4.59251 13.8827 3.99989 15.3747 4C16.8667 4.00011 18.2976 4.59292 19.3525 5.64804C20.4075 6.70316 21.0001 8.13415 21 9.6262C20.9999 11.1183 20.4071 12.5492 19.352 13.6041L18.7512 14.1262M13.1258 19.7516L12.6792 20.3524C11.6118 21.408 10.1711 22 8.66997 22C7.1688 22 5.72818 21.408 4.66077 20.3524C4.13464 19.8322 3.71694 19.2127 3.43186 18.5299C3.14679 17.8472 3 17.1146 3 16.3747C3 15.6348 3.14679 14.9022 3.43186 14.2194C3.71694 13.5366 4.13464 12.9172 4.66077 12.3969L5.25031 11.876" stroke="black" stroke-width="2.5" stroke-linecap="round" stroke-linejoin="round"/>
</svg>
