<svg width="15" height="10" viewBox="0 0 15 10" fill="none" xmlns="http://www.w3.org/2000/svg">
<path d="M2.86351 9.99808C2.73165 9.99726 2.60471 9.95331 2.50671 9.87454C2.24577 9.67471 2.00234 9.45734 1.77856 9.22433C0.631993 8.05442 0 6.55263 0 4.99799C0 3.44334 0.631993 1.94155 1.77856 0.771642C2.00234 0.538628 2.24576 0.321257 2.50671 0.121435C2.56069 0.0790754 2.6235 0.0466443 2.69154 0.026001C2.75958 0.00535769 2.83151 -0.00309208 2.90321 0.00113618C2.97492 0.00536444 3.04498 0.0221877 3.10939 0.0506413C3.1738 0.0790949 3.23129 0.118619 3.27856 0.16695C3.37255 0.265016 3.41984 0.392032 3.41032 0.520832C3.40079 0.649632 3.33521 0.769991 3.22759 0.856169C3.00463 1.02709 2.79538 1.21177 2.60137 1.40884C1.63957 2.40233 1.11029 3.67173 1.11029 4.98498C1.11029 6.29824 1.63957 7.56763 2.60137 8.56112C2.79797 8.75423 3.00623 8.93694 3.22759 9.10729C3.31305 9.17253 3.37389 9.25973 3.40178 9.35699C3.42968 9.45425 3.42328 9.55683 3.38345 9.65072C3.34362 9.74461 3.27231 9.82524 3.17925 9.88159C3.0862 9.93793 2.97593 9.96726 2.86351 9.96556V9.99808Z" fill="#F8312F"/>
<path d="M4.66191 8.33354C4.538 8.33405 4.41749 8.29741 4.31968 8.2295C4.06578 8.05476 3.83818 7.85152 3.64249 7.62481C2.96026 6.8837 2.5873 5.95408 2.5873 4.99472C2.5873 4.03536 2.96026 3.10575 3.64249 2.36464C3.84096 2.13984 4.071 1.93879 4.32696 1.76645C4.38306 1.72649 4.44754 1.69694 4.5166 1.67954C4.58567 1.66213 4.65793 1.65723 4.72915 1.6651C4.80037 1.67297 4.86911 1.69347 4.93134 1.72539C4.99356 1.75731 5.04802 1.8 5.09152 1.85097C5.16907 1.95047 5.20233 2.07219 5.18483 2.1924C5.16733 2.31261 5.10032 2.42269 4.99686 2.50118C4.80994 2.62984 4.64123 2.77831 4.49443 2.94332C3.96947 3.51169 3.68236 4.22547 3.68236 4.96221C3.68236 5.69895 3.96947 6.41273 4.49443 6.9811C4.6437 7.14821 4.81482 7.29841 5.00414 7.42975C5.11825 7.51043 5.19217 7.62801 5.20989 7.75701C5.22761 7.88601 5.18769 8.01605 5.0988 8.11897C5.04945 8.1824 4.98433 8.23478 4.90853 8.272C4.83274 8.30923 4.74833 8.33029 4.66191 8.33354Z" fill="#F8312F"/>
<path d="M9.43151 4.99789C9.4242 5.35159 9.3056 5.69633 9.08927 5.9927C8.90358 6.24631 8.65427 6.4578 8.36112 6.6104C8.02482 6.79787 7.63621 6.89701 7.23976 6.89649C6.84453 6.89559 6.45698 6.79897 6.1184 6.6169C5.82282 6.45316 5.57362 6.23063 5.39025 5.9667C5.1835 5.66652 5.07404 5.32103 5.07404 4.96863C5.07404 4.61623 5.1835 4.27073 5.39025 3.97056C5.69139 3.53998 6.16864 3.2312 6.72065 3.10979C7.27265 2.98838 7.85592 3.06392 8.34656 3.32035C8.64214 3.4841 8.89134 3.70662 9.07471 3.97056C9.30517 4.2738 9.42937 4.63142 9.43151 4.99789Z" fill="#F8312F"/>
<path d="M9.90461 8.33359C9.82244 8.33321 9.74136 8.3167 9.66712 8.28524C9.59288 8.25378 9.5273 8.20813 9.475 8.15153C9.43006 8.1009 9.39683 8.0428 9.37725 7.98061C9.35766 7.91842 9.35211 7.85337 9.36092 7.78924C9.36973 7.72512 9.39272 7.6632 9.42855 7.60707C9.46439 7.55095 9.51235 7.50174 9.56966 7.46231C9.75402 7.33325 9.92027 7.18479 10.0648 7.02017C10.5937 6.45343 10.8834 5.73903 10.8834 5.00128C10.8834 4.26353 10.5937 3.54913 10.0648 2.98239C9.91604 2.81702 9.74757 2.66659 9.56238 2.53374C9.50016 2.49641 9.44721 2.44804 9.40683 2.39164C9.36645 2.33525 9.33951 2.27203 9.32768 2.20593C9.31584 2.13983 9.31938 2.07227 9.33806 2.00744C9.35674 1.94261 9.39017 1.88191 9.43626 1.82912C9.48235 1.77633 9.54012 1.73258 9.60597 1.7006C9.67182 1.66861 9.74434 1.64907 9.81902 1.64319C9.89369 1.63732 9.96892 1.64523 10.04 1.66645C10.1111 1.68766 10.1766 1.72172 10.2323 1.7665C10.4886 1.94075 10.7187 2.14362 10.9167 2.37119C11.6016 3.11123 11.9763 4.04125 11.9763 5.00128C11.9763 5.9613 11.6016 6.89132 10.9167 7.63136C10.7209 7.85602 10.4933 8.05709 10.2396 8.22955C10.1443 8.29699 10.0262 8.33365 9.90461 8.33359Z" fill="#F8312F"/>
<path d="M11.6958 9.99791C11.584 9.99825 11.4748 9.96795 11.3829 9.91109C11.291 9.85423 11.2209 9.77356 11.182 9.67997C11.1431 9.58638 11.1373 9.48438 11.1654 9.38775C11.1934 9.29113 11.2541 9.20452 11.339 9.13964C11.5597 8.96864 11.7665 8.78398 11.958 8.58697C12.924 7.59529 13.4561 6.32521 13.4561 5.01083C13.4561 3.69645 12.924 2.42636 11.958 1.43469C11.7645 1.24136 11.5578 1.05895 11.339 0.888517C11.2304 0.803235 11.1634 0.68334 11.1525 0.554515C11.1416 0.425689 11.1877 0.298179 11.2808 0.199298C11.328 0.150968 11.3855 0.111443 11.4499 0.0829896C11.5144 0.0545361 11.5844 0.0377131 11.6561 0.0334848C11.7278 0.0292566 11.7998 0.0377063 11.8678 0.0583496C11.9358 0.0789929 11.9986 0.111424 12.0526 0.153784C12.3134 0.353794 12.5568 0.571151 12.7808 0.80399C13.9273 1.9739 14.5593 3.47569 14.5593 5.03033C14.5593 6.58498 13.9273 8.08677 12.7808 9.25668C12.5568 9.48952 12.3134 9.70688 12.0526 9.90689C11.9507 9.97618 11.8233 10.0087 11.6958 9.99791Z" fill="#F8312F"/>
</svg>
