<svg width="16" height="24" viewBox="0 0 16 24" fill="none" xmlns="http://www.w3.org/2000/svg">
<path d="M8 17.1429C9.27263 17.1414 10.4928 16.5991 11.3927 15.635C12.2925 14.6708 12.7987 13.3635 12.8 12V5.14286C12.8 3.77889 12.2943 2.47078 11.3941 1.50631C10.4939 0.541835 9.27304 0 8 0C6.72696 0 5.50606 0.541835 4.60589 1.50631C3.70571 2.47078 3.2 3.77889 3.2 5.14286V12C3.20132 13.3635 3.70746 14.6708 4.60735 15.635C5.50724 16.5991 6.72737 17.1414 8 17.1429ZM4.8 5.14286C4.8 4.23354 5.13714 3.36147 5.73726 2.71849C6.33737 2.07551 7.15131 1.71429 8 1.71429C8.84869 1.71429 9.66262 2.07551 10.2627 2.71849C10.8629 3.36147 11.2 4.23354 11.2 5.14286V12C11.2 12.9093 10.8629 13.7814 10.2627 14.4244C9.66262 15.0673 8.84869 15.4286 8 15.4286C7.15131 15.4286 6.33737 15.0673 5.73726 14.4244C5.13714 13.7814 4.8 12.9093 4.8 12V5.14286ZM8.8 20.5286V23.1429C8.8 23.3702 8.71572 23.5882 8.56569 23.7489C8.41566 23.9097 8.21217 24 8 24C7.78783 24 7.58434 23.9097 7.43431 23.7489C7.28429 23.5882 7.2 23.3702 7.2 23.1429V20.5286C5.22764 20.3135 3.39976 19.3225 2.06984 17.7472C0.739922 16.1719 0.00243612 14.1242 0 12C0 11.7727 0.0842856 11.5547 0.234315 11.3939C0.384344 11.2332 0.587827 11.1429 0.8 11.1429C1.01217 11.1429 1.21566 11.2332 1.36569 11.3939C1.51571 11.5547 1.6 11.7727 1.6 12C1.6 13.8186 2.27428 15.5628 3.47452 16.8487C4.67475 18.1347 6.30261 18.8571 8 18.8571C9.69739 18.8571 11.3253 18.1347 12.5255 16.8487C13.7257 15.5628 14.4 13.8186 14.4 12C14.4 11.7727 14.4843 11.5547 14.6343 11.3939C14.7843 11.2332 14.9878 11.1429 15.2 11.1429C15.4122 11.1429 15.6157 11.2332 15.7657 11.3939C15.9157 11.5547 16 11.7727 16 12C15.9976 14.1242 15.2601 16.1719 13.9302 17.7472C12.6002 19.3225 10.7724 20.3135 8.8 20.5286Z" fill="black"/>
</svg>
