<svg width="26" height="26" viewBox="0 0 26 26" fill="none" xmlns="http://www.w3.org/2000/svg">
<g clip-path="url(#clip0_65_200)">
<path d="M2.60724 4.62942L6.63723 8.66664H2.8889C2.50581 8.66664 2.13841 8.81882 1.86753 9.08971C1.59664 9.36059 1.44446 9.72799 1.44446 10.1111V15.8889C1.44446 16.272 1.59664 16.6394 1.86753 16.9102C2.13841 17.1811 2.50581 17.3333 2.8889 17.3333H6.60112L11.9528 22.7283C12.0933 22.8583 12.2582 22.9591 12.438 23.0248C12.6178 23.0905 12.8088 23.1198 13 23.1111C13.1883 23.1111 13.3747 23.0743 13.5489 23.0028C13.8138 22.8939 14.0404 22.7088 14.1999 22.4709C14.3593 22.233 14.4445 21.953 14.4445 21.6666V16.445L18.6983 20.6989C18.5178 20.8072 18.3445 20.9083 18.1567 21.0022C17.9852 21.0884 17.8551 21.2392 17.7948 21.4213C17.7345 21.6035 17.7491 21.8022 17.8353 21.9736C17.9215 22.145 18.0723 22.2752 18.2544 22.3355C18.4366 22.3957 18.6352 22.3812 18.8067 22.295C19.1313 22.1311 19.4471 21.9503 19.7528 21.7533L21.3995 23.4L22.3889 22.3889L3.61112 3.61108L2.60724 4.62942ZM13 21.6666L7.41724 16.055C7.27415 15.9355 7.09042 15.876 6.90446 15.8889H2.8889V10.1111H6.96224C7.05779 10.1107 7.15232 10.0913 7.24034 10.0541C7.32836 10.0169 7.40812 9.96266 7.47501 9.89442L7.66279 9.70664L13 15.0294V21.6666Z" fill="black" stroke="black" stroke-width="0.3"/>
<path d="M17.9761 4.83155C19.2349 5.4195 20.3399 6.29181 21.204 7.37972C22.0681 8.46763 22.6677 9.7414 22.9556 11.1006C23.2434 12.4598 23.2115 13.8673 22.8625 15.2121C22.5135 16.5569 21.8569 17.8022 20.9444 18.8499L21.97 19.8754C23.0471 18.6639 23.8266 17.2177 24.2463 15.6518C24.666 14.086 24.7144 12.4437 24.3876 10.8559C24.0608 9.26806 23.3678 7.77844 22.3638 6.50562C21.3598 5.23281 20.0725 4.21196 18.6044 3.52433C18.5187 3.47992 18.425 3.45314 18.3287 3.44558C18.2325 3.43802 18.1357 3.44983 18.0441 3.48031C17.9525 3.51079 17.8679 3.55932 17.7954 3.62304C17.7229 3.68677 17.6639 3.76438 17.6219 3.85129C17.5799 3.93821 17.5557 4.03266 17.5508 4.12908C17.546 4.22549 17.5605 4.3219 17.5935 4.41262C17.6265 4.50333 17.6774 4.5865 17.7431 4.65722C17.8088 4.72793 17.888 4.78476 17.9761 4.82433V4.83155Z" fill="black" stroke="black" stroke-width="0.3"/>
<path d="M16.3872 9.11437C17.067 9.511 17.6316 10.0779 18.0255 10.7593C18.4193 11.4407 18.6288 12.2129 18.6333 12.9999C18.6333 13.9666 18.319 14.907 17.7377 15.6794L18.7777 16.7049C19.6224 15.6551 20.0812 14.3473 20.0777 12.9999C20.073 11.9605 19.7975 10.9402 19.2782 10.0397C18.7589 9.13924 18.0139 8.38967 17.1166 7.86493C17.0344 7.81267 16.9425 7.77758 16.8464 7.76177C16.7503 7.74596 16.652 7.74976 16.5574 7.77293C16.4627 7.79611 16.3738 7.83818 16.2959 7.89662C16.2179 7.95506 16.1526 8.02866 16.1039 8.11299C16.0552 8.19732 16.024 8.29064 16.0122 8.38733C16.0005 8.48403 16.0084 8.5821 16.0356 8.67565C16.0627 8.76919 16.1085 8.85629 16.1701 8.93168C16.2318 9.00708 16.3081 9.06922 16.3944 9.11437H16.3872Z" fill="black" stroke="black" stroke-width="0.3"/>
<path d="M13 4.33329V10.9416L14.4444 12.3861V4.33329C14.4446 4.04701 14.3598 3.76711 14.2006 3.52914C14.0415 3.29117 13.8152 3.10586 13.5505 2.99674C13.2858 2.88762 12.9947 2.85961 12.7141 2.91627C12.4335 2.97293 12.176 3.1117 11.9744 3.31496L8.66663 6.62274L9.68496 7.64107L13 4.33329Z" fill="black" stroke="black" stroke-width="0.3"/>
</g>
<defs>
<clipPath id="clip0_65_200">
<rect width="26" height="26" fill="white"/>
</clipPath>
</defs>
</svg>
