<svg width="27" height="27" viewBox="0 0 27 27" fill="none" xmlns="http://www.w3.org/2000/svg">
<path d="M16.875 9H16.8863M3.375 6.75C3.375 5.85489 3.73058 4.99645 4.36351 4.36351C4.99645 3.73058 5.85489 3.375 6.75 3.375H20.25C21.1451 3.375 22.0036 3.73058 22.6365 4.36351C23.2694 4.99645 23.625 5.85489 23.625 6.75V20.25C23.625 21.1451 23.2694 22.0036 22.6365 22.6365C22.0036 23.2694 21.1451 23.625 20.25 23.625H6.75C5.85489 23.625 4.99645 23.2694 4.36351 22.6365C3.73058 22.0036 3.375 21.1451 3.375 20.25V6.75Z" stroke="black" stroke-width="1.8" stroke-linecap="round" stroke-linejoin="round"/>
<path d="M3.375 18.0001L9 12.3751C10.044 11.3704 11.331 11.3704 12.375 12.3751L18 18.0001" stroke="black" stroke-width="1.8" stroke-linecap="round" stroke-linejoin="round"/>
<path d="M15.75 15.7501L16.875 14.6251C17.919 13.6204 19.206 13.6204 20.25 14.6251L23.625 18.0001" stroke="black" stroke-width="1.8" stroke-linecap="round" stroke-linejoin="round"/>
</svg>
