<svg width="14" height="26" viewBox="0 0 14 26" fill="none" xmlns="http://www.w3.org/2000/svg">
<path d="M6.81402 4C6.37426 4 5.97207 4.37375 6.00152 4.8125L6.40777 15.7812C6.40777 15.889 6.45057 15.9923 6.52676 16.0685C6.60295 16.1447 6.70628 16.1875 6.81402 16.1875C6.92177 16.1875 7.0251 16.1447 7.10129 16.0685C7.17747 15.9923 7.22027 15.889 7.22027 15.7812L7.62652 4.8125C7.65598 4.37375 7.25379 4 6.81402 4Z" stroke="black" stroke-width="2" stroke-linecap="round" stroke-linejoin="round"/>
<path d="M6.81403 21.875C7.26276 21.875 7.62653 21.5112 7.62653 21.0625C7.62653 20.6138 7.26276 20.25 6.81403 20.25C6.36529 20.25 6.00153 20.6138 6.00153 21.0625C6.00153 21.5112 6.36529 21.875 6.81403 21.875Z" stroke="black" stroke-width="2" stroke-linecap="round" stroke-linejoin="round"/>
</svg>
