<svg width="29" height="29" viewBox="0 0 29 29" fill="none" xmlns="http://www.w3.org/2000/svg">
<path d="M3.92727 19.3088L17.4178 19.3088C18.4821 19.3088 19.345 18.4478 19.345 17.3856L19.345 3.92318C19.345 2.86102 18.4821 1.99997 17.4178 1.99997L3.92727 1.99997C2.8629 1.99997 2.00006 2.86102 2.00006 3.92318L2.00006 17.3856C2.00006 18.4478 2.8629 19.3088 3.92727 19.3088Z" stroke="black" stroke-width="2" stroke-linecap="round" stroke-linejoin="round"/>
<path d="M24.1629 10.0775L25.6662 10.5583C25.9087 10.6366 26.1332 10.7622 26.3268 10.9277C26.5204 11.0932 26.6791 11.2954 26.7938 11.5226C26.9085 11.7498 26.977 11.9974 26.9951 12.2511C27.0133 12.5049 26.9808 12.7597 26.8996 13.0008L22.6983 25.6747C22.5395 26.1591 22.1946 26.5607 21.7393 26.7915C21.284 27.0223 20.7556 27.0633 20.27 26.9056L11.7517 24.1169M2 14.5009H19.3449" stroke="black" stroke-width="2" stroke-linecap="round" stroke-linejoin="round"/>
</svg>
