<svg width="26" height="26" viewBox="0 0 26 26" fill="none" xmlns="http://www.w3.org/2000/svg">
<path d="M25 23.7448L18.296 17.0408C19.907 15.1067 20.7104 12.626 20.5389 10.1147C20.3675 7.60346 19.2345 5.25494 17.3756 3.55775C15.5168 1.86055 13.0751 0.945348 10.5586 1.00253C8.04217 1.05971 5.64462 2.08486 3.86474 3.86474C2.08486 5.64462 1.05971 8.04217 1.00253 10.5586C0.945348 13.0751 1.86055 15.5168 3.55775 17.3756C5.25494 19.2345 7.60346 20.3675 10.1147 20.5389C12.626 20.7104 15.1067 19.907 17.0408 18.296L23.7448 25L25 23.7448ZM2.80717 10.7966C2.80717 9.21643 3.27574 7.67176 4.15363 6.35791C5.03152 5.04405 6.2793 4.02003 7.73917 3.41533C9.19905 2.81063 10.8055 2.65241 12.3552 2.96069C13.905 3.26896 15.3286 4.02988 16.446 5.14722C17.5633 6.26456 18.3242 7.68814 18.6325 9.23793C18.9408 10.7877 18.7826 12.3941 18.1779 13.854C17.5732 15.3139 16.5491 16.5617 15.2353 17.4395C13.9214 18.3174 12.3767 18.786 10.7966 18.786C8.67839 18.7837 6.64761 17.9412 5.14981 16.4434C3.65202 14.9456 2.80952 12.9148 2.80717 10.7966Z" fill="black" stroke="black" stroke-width="0.4"/>
</svg>
