<svg width="26" height="27" viewBox="0 0 26 27" fill="none" xmlns="http://www.w3.org/2000/svg">
<path d="M23.7896 2.21041L11.4673 14.5352M2.27153 10.0359L23.4258 2.02792C23.5021 1.99873 23.5852 1.99226 23.6651 2.0093C23.745 2.02634 23.8183 2.06616 23.8761 2.12394C23.9339 2.18173 23.9737 2.25501 23.9907 2.33494C24.0077 2.41486 24.0013 2.49801 23.9721 2.57434L15.9657 23.7328C15.9339 23.8131 15.8782 23.8818 15.8062 23.9295C15.7341 23.9773 15.6492 24.0018 15.5628 23.9999C15.4764 23.9979 15.3927 23.9696 15.3229 23.9186C15.2531 23.8676 15.2006 23.7965 15.1724 23.7148L11.608 14.9293C11.5664 14.8048 11.4965 14.6916 11.4037 14.5988C11.3109 14.506 11.1978 14.4361 11.0733 14.3945L2.28951 10.8325C2.20677 10.8049 2.13455 10.7525 2.08274 10.6823C2.03094 10.6122 2.00208 10.5277 2.00011 10.4405C1.99814 10.3533 2.02316 10.2676 2.07175 10.1952C2.12033 10.1227 2.19011 10.0671 2.27153 10.0359Z" stroke="black" stroke-width="2" stroke-linecap="round" stroke-linejoin="round"/>
</svg>
