<svg width="20" height="20" viewBox="0 0 20 20" fill="none" xmlns="http://www.w3.org/2000/svg">
<path fill-rule="evenodd" clip-rule="evenodd" d="M9.91083 1H10.0058C11.93 1 13.4375 1 14.6142 1.15833C15.8175 1.32 16.7675 1.65833 17.5133 2.40333C18.2592 3.14917 18.5967 4.09917 18.7583 5.30333C18.9167 6.47917 18.9167 7.98667 18.9167 9.91083V12.4583C18.9167 14.1712 18.2362 15.8139 17.0251 17.0251C15.8139 18.2362 14.1712 18.9167 12.4583 18.9167H9.91083C7.98667 18.9167 6.47917 18.9167 5.3025 18.7583C4.09917 18.5967 3.14917 18.2583 2.40333 17.5133C1.6575 16.7675 1.32 15.8175 1.15833 14.6133C1 13.4375 1 11.93 1 10.0058V9.91083C1 7.98667 1 6.47917 1.15833 5.3025C1.32 4.09917 1.65833 3.14917 2.40333 2.40333C3.14917 1.6575 4.09917 1.32 5.30333 1.15833C6.47917 1 7.98667 1 9.91083 1ZM5.46917 2.39667C4.40417 2.54 3.76167 2.81333 3.2875 3.2875C2.8125 3.7625 2.54 4.40417 2.39667 5.47C2.25167 6.55333 2.25 7.97667 2.25 9.95833C2.25 11.94 2.25167 13.3633 2.39667 14.4467C2.54 15.5125 2.81333 16.155 3.2875 16.63C3.7625 17.1042 4.40417 17.3767 5.47 17.52C6.55333 17.665 7.97667 17.6667 9.95833 17.6667H11.8333C11.8367 16.5283 11.8617 15.78 12.0675 15.1442C12.3012 14.4249 12.7017 13.7712 13.2365 13.2365C13.7712 12.7017 14.4249 12.3012 15.1442 12.0675C15.78 11.8608 16.5275 11.8367 17.6667 11.8342V9.95833C17.6667 7.97667 17.665 6.55333 17.52 5.47C17.3767 4.40417 17.1033 3.76167 16.6292 3.28667C16.1542 2.8125 15.5125 2.54 14.4467 2.39667C13.3633 2.25167 11.94 2.25 9.95833 2.25C7.97667 2.25 6.5525 2.25167 5.46917 2.39667ZM17.6292 13.0842C16.4983 13.0892 15.9633 13.1158 15.5308 13.2567C14.9992 13.4294 14.516 13.7255 14.1207 14.1207C13.7255 14.516 13.4294 14.9992 13.2567 15.5308C13.1158 15.9642 13.09 16.4983 13.0842 17.6292C14.2408 17.4888 15.317 16.9648 16.1409 16.1409C16.9648 15.317 17.4888 14.2408 17.6292 13.0842Z" fill="black" stroke="black" stroke-width="0.4"/>
</svg>
